<svg width="41" height="41" viewBox="0 0 41 41" fill="none" xmlns="http://www.w3.org/2000/svg">
<mask id="path-1-inside-1" fill="white">
<path d="M39.1012 20.1694C39.8546 20.1694 40.4702 20.781 40.4188 21.5326C40.164 25.2641 38.8667 28.8594 36.6618 31.903C34.1894 35.3157 30.7022 37.8603 26.6978 39.1736C22.6934 40.4868 18.3765 40.5016 14.3632 39.2158C10.35 37.93 6.84538 35.4094 4.34968 32.0137C1.85397 28.6179 0.494677 24.5206 0.465802 20.3065C0.436926 16.0924 1.73994 11.9768 4.18888 8.54717C6.63782 5.11754 10.1075 2.54912 14.1028 1.20846C17.6659 0.0128485 21.4845 -0.151786 25.1219 0.719054C25.8546 0.894478 26.2544 1.6646 26.0295 2.38365C25.8045 3.1027 25.04 3.49761 24.3055 3.33009C21.2189 2.62619 17.9887 2.7824 14.9708 3.79509C11.5205 4.95285 8.52414 7.17089 6.40928 10.1327C4.29442 13.0944 3.16916 16.6485 3.1941 20.2878C3.21904 23.927 4.3929 27.4654 6.54814 30.3979C8.70339 33.3304 11.7299 35.5072 15.1957 36.6175C18.6615 37.7279 22.3895 37.7151 25.8476 36.581C29.3057 35.447 32.3172 33.2495 34.4523 30.3023C36.3198 27.7244 37.4334 24.6882 37.6831 21.5322C37.7426 20.7812 38.3477 20.1694 39.1012 20.1694Z"/>
</mask>
<path d="M39.1012 20.1694C39.8546 20.1694 40.4702 20.781 40.4188 21.5326C40.164 25.2641 38.8667 28.8594 36.6618 31.903C34.1894 35.3157 30.7022 37.8603 26.6978 39.1736C22.6934 40.4868 18.3765 40.5016 14.3632 39.2158C10.35 37.93 6.84538 35.4094 4.34968 32.0137C1.85397 28.6179 0.494677 24.5206 0.465802 20.3065C0.436926 16.0924 1.73994 11.9768 4.18888 8.54717C6.63782 5.11754 10.1075 2.54912 14.1028 1.20846C17.6659 0.0128485 21.4845 -0.151786 25.1219 0.719054C25.8546 0.894478 26.2544 1.6646 26.0295 2.38365C25.8045 3.1027 25.04 3.49761 24.3055 3.33009C21.2189 2.62619 17.9887 2.7824 14.9708 3.79509C11.5205 4.95285 8.52414 7.17089 6.40928 10.1327C4.29442 13.0944 3.16916 16.6485 3.1941 20.2878C3.21904 23.927 4.3929 27.4654 6.54814 30.3979C8.70339 33.3304 11.7299 35.5072 15.1957 36.6175C18.6615 37.7279 22.3895 37.7151 25.8476 36.581C29.3057 35.447 32.3172 33.2495 34.4523 30.3023C36.3198 27.7244 37.4334 24.6882 37.6831 21.5322C37.7426 20.7812 38.3477 20.1694 39.1012 20.1694Z" stroke="#0C0B0B" stroke-width="4" mask="url(#path-1-inside-1)"/>
<path d="M14.3384 17.8394C14.3384 18.3006 14.2157 18.7111 13.9702 19.0708C13.729 19.4305 13.401 19.7119 12.9863 19.915C13.4688 20.1224 13.8496 20.425 14.1289 20.8228C14.4124 21.2205 14.5542 21.6712 14.5542 22.1748C14.5542 22.9746 14.2834 23.6115 13.7417 24.0854C13.2043 24.5594 12.4954 24.7964 11.6152 24.7964C10.7266 24.7964 10.0135 24.5594 9.47607 24.0854C8.94287 23.6073 8.67627 22.9704 8.67627 22.1748C8.67627 21.6755 8.81169 21.2248 9.08252 20.8228C9.35758 20.4207 9.73633 20.116 10.2188 19.9087C9.80827 19.7056 9.48454 19.4242 9.24756 19.0645C9.01058 18.7048 8.89209 18.2964 8.89209 17.8394C8.89209 17.0607 9.14176 16.4429 9.64111 15.9858C10.1405 15.5288 10.7985 15.3003 11.6152 15.3003C12.4277 15.3003 13.0837 15.5288 13.583 15.9858C14.0866 16.4429 14.3384 17.0607 14.3384 17.8394ZM13.3799 22.1494C13.3799 21.6331 13.2148 21.2121 12.8848 20.8862C12.5589 20.5604 12.1315 20.3975 11.6025 20.3975C11.0736 20.3975 10.6483 20.5583 10.3267 20.8799C10.0093 21.2015 9.85059 21.6247 9.85059 22.1494C9.85059 22.6742 10.005 23.0868 10.314 23.3872C10.6271 23.6877 11.0609 23.8379 11.6152 23.8379C12.1654 23.8379 12.597 23.6877 12.9102 23.3872C13.2233 23.0825 13.3799 22.6699 13.3799 22.1494ZM11.6152 16.2651C11.154 16.2651 10.7795 16.409 10.4917 16.6968C10.2082 16.9803 10.0664 17.3675 10.0664 17.8584C10.0664 18.3281 10.2061 18.709 10.4854 19.001C10.7689 19.2887 11.1455 19.4326 11.6152 19.4326C12.085 19.4326 12.4595 19.2887 12.7388 19.001C13.0223 18.709 13.1641 18.3281 13.1641 17.8584C13.1641 17.3887 13.0181 17.0057 12.7261 16.7095C12.4341 16.4132 12.0638 16.2651 11.6152 16.2651ZM17.7407 19.4771H18.623C19.1774 19.4686 19.6133 19.3226 19.9307 19.0391C20.248 18.7555 20.4067 18.3726 20.4067 17.8901C20.4067 16.8068 19.8672 16.2651 18.7881 16.2651C18.2803 16.2651 17.874 16.4111 17.5693 16.7031C17.2689 16.9909 17.1187 17.3739 17.1187 17.8521H15.9443C15.9443 17.12 16.2109 16.5127 16.7441 16.0303C17.2816 15.5436 17.9629 15.3003 18.7881 15.3003C19.6598 15.3003 20.3433 15.5309 20.8384 15.9922C21.3335 16.4535 21.5811 17.0946 21.5811 17.9155C21.5811 18.3175 21.4499 18.7069 21.1875 19.0835C20.9294 19.4601 20.576 19.7415 20.1274 19.9277C20.6353 20.0885 21.0267 20.3551 21.3018 20.7275C21.5811 21.0999 21.7207 21.5549 21.7207 22.0923C21.7207 22.9217 21.4499 23.5798 20.9082 24.0664C20.3665 24.5531 19.6619 24.7964 18.7944 24.7964C17.9269 24.7964 17.2202 24.5615 16.6743 24.0918C16.1326 23.6221 15.8618 23.0021 15.8618 22.2319H17.0425C17.0425 22.7186 17.2012 23.1079 17.5186 23.3999C17.8359 23.6919 18.2612 23.8379 18.7944 23.8379C19.3615 23.8379 19.7952 23.6898 20.0957 23.3936C20.3962 23.0973 20.5464 22.672 20.5464 22.1177C20.5464 21.5802 20.3813 21.1676 20.0513 20.8799C19.7212 20.5921 19.2451 20.444 18.623 20.4355H17.7407V19.4771ZM23.2314 17.2046C23.2314 16.6502 23.4071 16.1932 23.7583 15.8335C24.1138 15.4738 24.5687 15.2939 25.123 15.2939C25.6859 15.2939 26.1408 15.4759 26.4878 15.8398C26.839 16.1995 27.0146 16.6672 27.0146 17.2427V17.6934C27.0146 18.252 26.8369 18.709 26.4814 19.0645C26.1302 19.4157 25.6816 19.5913 25.1357 19.5913C24.5856 19.5913 24.1307 19.4157 23.771 19.0645C23.4113 18.709 23.2314 18.2371 23.2314 17.6489V17.2046ZM24.1074 17.6934C24.1074 18.0234 24.2005 18.2964 24.3867 18.5122C24.5729 18.7238 24.8226 18.8296 25.1357 18.8296C25.4362 18.8296 25.6774 18.7259 25.8594 18.5186C26.0456 18.3112 26.1387 18.0277 26.1387 17.668V17.2046C26.1387 16.8745 26.0477 16.6016 25.8657 16.3857C25.6838 16.1699 25.4362 16.062 25.123 16.062C24.8099 16.062 24.5623 16.1699 24.3804 16.3857C24.1984 16.6016 24.1074 16.883 24.1074 17.23V17.6934ZM27.7319 22.4033C27.7319 21.849 27.9076 21.394 28.2588 21.0386C28.6143 20.6789 29.0692 20.499 29.6235 20.499C30.1779 20.499 30.6328 20.6768 30.9883 21.0322C31.3438 21.3877 31.5215 21.8595 31.5215 22.4478V22.8984C31.5215 23.4528 31.3438 23.9098 30.9883 24.2695C30.637 24.625 30.1864 24.8027 29.6362 24.8027C29.0861 24.8027 28.6312 24.6271 28.2715 24.2759C27.9118 23.9204 27.7319 23.4486 27.7319 22.8604V22.4033ZM28.6079 22.8984C28.6079 23.2327 28.701 23.5078 28.8872 23.7236C29.0734 23.9352 29.3231 24.041 29.6362 24.041C29.9409 24.041 30.1842 23.9373 30.3662 23.73C30.5482 23.5184 30.6392 23.2327 30.6392 22.873V22.4033C30.6392 22.069 30.5461 21.7961 30.3599 21.5845C30.1779 21.3729 29.9325 21.2671 29.6235 21.2671C29.3231 21.2671 29.0776 21.3729 28.8872 21.5845C28.701 21.7918 28.6079 22.0732 28.6079 22.4287V22.8984ZM25.4023 23.9712L24.7358 23.5522L29.249 16.3286L29.9155 16.7476L25.4023 23.9712Z" fill="#0C0B0B"/>
</svg>
