<svg width="126" height="126" viewBox="0 0 126 126" fill="none" xmlns="http://www.w3.org/2000/svg">
<g clip-path="url(#clip0)">
<path d="M124.971 114.563L115.542 66.0801C115.265 64.5887 113.954 63.5017 112.441 63.5017H107.323L106.869 60.7211C106.642 59.3561 105.583 58.2944 104.222 58.0922C103.97 58.0417 103.743 58.0164 103.491 57.9911C103.34 57.9658 103.163 57.9406 103.012 57.9406L101.802 57.7636L102.054 56.5755C102.709 53.5422 102.18 50.433 100.566 47.7788L100.264 47.2985L100.465 46.7677C101.272 44.6696 101.121 42.3187 100.062 40.347C99.0032 38.3753 97.1123 36.9598 94.9188 36.4795L94.1877 36.3278L94.0616 35.5695C92.5489 27.4805 85.4896 21.5654 77.2958 21.5149C77.2202 21.5149 77.1193 21.5149 77.0437 21.5402C76.9428 21.5402 76.842 21.5654 76.7411 21.5654L76.0856 21.5907L75.7327 21.0346C74.4973 19.1135 72.5056 17.8496 70.2365 17.5462C67.9674 17.2682 65.7236 18.0012 64.0596 19.5685L63.4041 20.1751L62.6478 19.6949C60.4291 18.254 57.8575 17.4957 55.2355 17.4957C50.9747 17.5209 47.0165 19.4674 44.3944 22.8546L43.9154 23.4613L43.1843 23.2338C40.3605 22.4249 37.3856 22.9052 34.9904 24.5988C32.5953 26.2924 31.1078 28.9466 30.9313 31.8789L30.8809 32.5867L30.2254 32.8647C27.3513 34.0781 25.5108 36.8839 25.4856 39.9931C25.4856 40.524 25.5612 41.0548 25.6621 41.5857L25.7629 42.0659L25.4856 42.4704C22.7627 46.5907 22.0568 51.6716 23.5443 56.3733L23.9477 57.6625L22.6115 57.8394C22.3845 57.8647 22.1324 57.89 21.9055 57.9406C21.5778 57.9911 21.2248 58.0417 20.8971 58.067C19.5356 58.2692 18.4515 59.3309 18.2246 60.6959L17.7708 63.4765H12.7032C11.1905 63.4765 9.8795 64.5634 9.60217 66.0548L0.172968 114.563C-0.129573 116.131 0.273815 117.748 1.28229 118.987C2.29076 120.226 3.80347 120.933 5.39181 120.933H50.8991L51.2268 121.49C52.5883 123.739 57.1516 125.256 62.5469 125.256C67.917 125.256 72.4299 123.739 73.8166 121.49L74.1443 120.959H119.702C121.29 120.959 122.778 120.251 123.812 119.012C124.87 117.748 125.274 116.131 124.971 114.563ZM26.015 45.8576L26.6706 44.2904L27.8555 45.5038C28.2589 45.9335 28.7379 46.2874 29.2422 46.616C29.7212 46.894 30.3263 46.7424 30.6288 46.2621C30.9061 45.8071 30.7801 45.251 30.3767 44.9224L30.301 44.8718C28.1328 43.5573 27.0739 40.9284 27.7547 38.4765C28.4354 36.0245 30.6792 34.3056 33.2004 34.3056H33.2256C34.9904 34.3056 36.6796 35.165 37.7385 36.6059C37.9402 36.8839 38.3184 37.0356 38.6714 37.0103C39.0243 36.9598 39.3521 36.7323 39.4781 36.4037C39.6294 36.075 39.579 35.6959 39.3521 35.3925C38.0915 33.6989 36.1502 32.6119 34.0576 32.3844L32.797 32.2581L33.0491 31.0194C33.8055 27.5058 36.957 24.9274 40.537 24.9274H40.5622H40.5875C40.89 24.9527 41.1925 24.978 41.4951 25.0285L42.8817 25.256L42.3775 26.5705C42.2262 26.9749 42.0749 27.3794 41.9741 27.7838C41.848 28.3147 42.1758 28.8455 42.7052 28.9972C43.2347 29.1236 43.7894 28.8202 43.9406 28.2894C44.218 27.253 44.6213 26.2672 45.176 25.3066C47.2686 21.7677 51.126 19.5685 55.2103 19.5432C57.4793 19.5432 59.6476 20.2257 61.5384 21.4643L62.2948 21.9446L61.9923 22.7788C61.7149 23.5624 61.5637 24.3966 61.5637 25.2308C61.5637 25.7869 62.0175 26.2419 62.5721 26.2419C63.1268 26.2419 63.5806 25.7869 63.5806 25.2308C63.5806 22.0963 66.127 19.5432 69.228 19.5432C72.3543 19.5432 74.9007 22.0963 74.9007 25.2308C74.9007 25.7869 75.3545 26.2419 75.9092 26.2419C76.4638 26.2419 76.9176 25.7869 76.9176 25.2308C76.9176 25.2055 76.9176 25.1549 76.8924 25.1296C76.8672 25.0285 76.8672 24.9274 76.8672 24.801L76.7916 23.5371L78.0522 23.613C84.6576 24.0174 90.3303 28.8202 91.8178 35.2914L92.0699 36.3531L91.0362 36.6564C90.1538 36.9092 89.347 37.3137 88.6159 37.8698C88.3386 38.0973 88.1621 38.4512 88.2125 38.8051C88.2629 39.159 88.4898 39.4876 88.8176 39.614C89.1453 39.7656 89.5487 39.7151 89.8261 39.4876C91.9691 37.8951 94.9693 38.0215 96.961 39.7909C98.9527 41.5604 99.457 44.5179 98.146 46.8435C97.5661 47.8799 96.6837 48.6888 95.5996 49.1944C95.1962 49.3966 94.9693 49.8769 95.0701 50.3319C95.171 50.7869 95.5744 51.1155 96.0534 51.1408C96.1794 51.1408 96.3307 51.1155 96.482 51.0396C96.961 50.8121 97.44 50.5088 97.8686 50.1549L99.104 49.1691L99.6334 50.6605C100.894 54.2247 100.112 58.1933 97.5913 60.9992L97.5157 61.075C94.4146 64.4623 89.347 65.3723 85.2123 63.3248L85.1871 63.2995C84.7837 63.072 84.3803 62.8445 84.0021 62.5664L83.0945 61.9092L83.75 60.9992C85.0863 59.1033 85.2879 56.6514 84.229 54.5786C84.0778 54.25 83.75 54.0477 83.3718 54.0225C83.0189 53.9972 82.6659 54.1741 82.4642 54.4775C82.2625 54.7808 82.2373 55.1853 82.4138 55.4886C83.3718 57.4097 82.7668 59.7859 81.0019 60.9992C79.943 61.707 78.6825 61.9092 77.4723 61.6059C76.2621 61.3025 75.2537 60.4936 74.6738 59.3814C74.4973 59.0275 74.1695 58.8253 73.8166 58.8C73.4636 58.7747 73.1106 58.9517 72.909 59.255C72.7073 59.5584 72.6821 59.9375 72.8585 60.2661C73.9426 62.4401 76.1109 63.8051 78.5312 63.8051H78.5564C79.338 63.8051 80.0943 63.6534 80.8255 63.3501L81.481 63.0973L82.0104 63.5523C82.7163 64.159 83.4727 64.6898 84.3047 65.1195C87.1284 66.5857 90.3555 66.889 93.3809 65.9537L96.6332 64.9679L94.6163 67.7232C92.2968 70.8829 88.8932 72.981 85.0358 73.613C84.5316 73.6888 84.1534 74.1691 84.1786 74.6999C84.229 75.2308 84.6576 75.6352 85.1871 75.6352C85.2375 75.6352 85.2879 75.6352 85.3636 75.6352C86.5737 75.433 87.7587 75.0791 88.9184 74.5988L89.8513 74.1944L90.3555 75.0791C91.0614 76.3177 91.6161 77.6322 92.0447 78.9972C92.1455 79.3258 92.196 79.6797 92.2212 80.0336C92.2212 81.4239 91.3892 82.6878 90.1286 83.2186L90.1034 83.2439C89.6748 83.3956 89.2462 83.4967 88.8176 83.4967C87.7587 83.4967 86.7502 83.0164 86.0443 82.1822C84.5064 80.3875 82.5146 79.0477 80.2708 78.34C75.7579 76.8233 73.4132 75.3066 72.4047 73.2843L71.6736 71.8435L73.2619 71.6413C74.3208 71.5149 75.3545 71.2874 76.3882 70.984C76.7159 70.8829 76.9933 70.6049 77.0689 70.251C77.1445 69.8971 77.0437 69.5179 76.7664 69.2651C76.489 69.0124 76.1108 68.9365 75.7831 69.0376C74.4973 69.4421 73.1611 69.6696 71.7996 69.7707C69.228 69.9729 66.5808 69.5685 64.1857 68.6079C63.7823 68.4562 63.3285 68.5573 63.0512 68.886C59.4963 72.981 53.5463 73.6635 49.1595 70.4785C44.7978 67.2934 43.5877 61.4037 46.361 56.7525C46.5626 56.4492 46.5626 56.0447 46.3862 55.7161C46.2097 55.3875 45.8819 55.1852 45.5037 55.1852C45.1508 55.1852 44.7978 55.3622 44.6213 55.6908C44.1675 56.4744 43.7893 57.3339 43.4868 58.2186L43.2347 59.0528L42.3523 59.0022C40.0832 58.8758 38.268 57.0053 38.2175 54.705V54.6291C38.2175 54.3764 38.1167 54.0983 37.915 53.9213C37.7385 53.7444 37.4612 53.6433 37.2091 53.6433C36.6292 53.6433 36.1754 54.1236 36.1754 54.6797C36.1754 57.9406 38.6209 60.6453 41.848 60.9992L42.8565 61.1003V62.1114C42.8565 62.7687 42.9321 63.4259 43.033 64.0831L43.2095 65.1448L42.1506 65.3723C36.9065 66.5098 31.5364 64.6392 28.1076 60.4936C24.704 56.4492 23.8973 50.7869 26.015 45.8576ZM50.8739 118.861H5.39181C4.40855 118.861 3.47571 118.431 2.84542 117.647C2.21512 116.889 1.963 115.903 2.1647 114.943L11.7704 65.524H17.4683L10.5098 107.536C10.3333 108.623 10.7367 109.71 11.5687 110.443C12.4007 111.176 13.5352 111.404 14.5941 111.075C26.1915 107.309 38.6714 106.525 50.6722 108.775L51.6806 108.977L50.8739 118.861ZM72.1274 120.428C71.2702 121.768 67.4632 123.183 62.5721 123.183C57.681 123.183 53.8741 121.793 53.0169 120.428L52.8152 120.099L53.6976 109.432L54.9834 109.761C57.4037 110.367 59.7736 111.176 62.0679 112.137L62.1183 112.162C62.2444 112.238 62.4209 112.263 62.5721 112.263C62.7234 112.263 62.8747 112.238 63.0007 112.162L63.0512 112.137C65.3454 111.151 67.7405 110.342 70.1357 109.735L71.4215 109.407L72.3039 120.099L72.1274 120.428ZM65.0681 109.129L63.5806 109.634V81.1205C63.5806 80.5897 63.2024 80.1094 62.673 80.0589C62.0679 80.0083 61.5384 80.4633 61.5384 81.07V109.659L60.0509 109.154C45.2012 104.174 28.8388 104.174 13.989 109.129C13.863 109.179 13.7369 109.179 13.6361 109.179C12.9553 109.179 12.4007 108.573 12.5267 107.865L20.418 60.1903L21.2248 60.0639C22.0316 59.9375 22.8888 59.8364 23.6956 59.7353L25.0066 59.5584L25.3848 60.1903C29.1161 66.1559 36.2006 69.0376 43.0078 67.3693L43.865 67.167L44.2684 67.9507C46.0584 71.3379 49.3612 73.7393 53.1177 74.3966C56.8743 75.0285 60.8073 73.8657 63.6058 71.2368L64.0848 70.7818L64.7151 70.9588C66.1018 71.3632 67.5136 71.616 68.9507 71.7171L69.7575 71.7677L69.9592 72.5513C70.892 76.0649 73.5645 78.2136 79.5649 80.2358C81.4557 80.8172 83.1449 81.9547 84.4307 83.4714C85.5148 84.7606 87.1032 85.5189 88.7672 85.5189C89.4983 85.5189 90.2042 85.3673 90.8597 85.0892C92.8767 84.2297 94.1877 82.2328 94.1877 80.0336C94.1877 79.4522 94.0869 78.8961 93.9104 78.34C93.4566 76.8738 92.8263 75.4835 92.0951 74.1438L91.5909 73.2591L92.4229 72.6524C95.8517 70.1751 98.2468 66.5351 99.1292 62.3895L99.1796 62.1114L99.3561 61.8839C99.7847 61.3784 100.163 60.8475 100.491 60.2914L100.869 59.6595L102.079 59.8111C102.634 59.887 103.239 59.9628 103.819 60.0639L104.625 60.1903L112.517 107.839C112.643 108.674 111.836 109.381 111.029 109.103C103.592 106.626 95.8013 105.362 88.0108 105.362C80.296 105.413 72.5056 106.651 65.0681 109.129ZM122.274 117.673C121.643 118.431 120.71 118.886 119.727 118.886H74.2704L73.4636 108.977L74.4721 108.775C86.4729 106.5 98.9779 107.309 110.575 111.1C111.609 111.429 112.744 111.176 113.601 110.443C114.433 109.71 114.836 108.623 114.66 107.536L107.701 65.5493H113.424L123.03 114.968C123.156 115.928 122.904 116.914 122.274 117.673Z" fill="#0C0B0B"/>
<path d="M72.3288 120.099L72.1271 120.428C71.2699 121.768 67.463 123.183 62.5719 123.183C57.6808 123.183 53.8738 121.793 53.0166 120.428L52.8149 120.099L53.6974 109.432L54.9832 109.761C57.4035 110.367 59.7734 111.176 62.0677 112.137L62.1181 112.162C62.2441 112.238 62.4206 112.263 62.5719 112.263C62.7232 112.263 62.8744 112.238 63.0005 112.162L63.0509 112.137C65.3452 111.151 67.7403 110.342 70.1354 109.735L71.4212 109.407L72.3288 120.099Z" fill="#0C0B0B"/>
<path d="M76.4637 44.5937C75.5309 49.4471 71.6231 53.2388 66.7824 54.0477L66.1269 54.1488L65.9 54.7555C64.5134 58.4713 60.9333 60.9486 56.975 60.9486H56.9498C56.3952 60.9486 55.9414 60.4936 55.9414 59.9375C55.9414 59.3813 56.3952 58.9263 56.9498 58.9263C59.3954 58.9263 61.6896 57.7383 63.1015 55.7413L64.11 54.3257L62.4208 53.9718C59.9752 53.441 57.807 52.2024 56.1178 50.3318C55.9414 50.1296 55.8657 49.9021 55.8657 49.6493C55.8657 49.3712 55.9918 49.0932 56.1935 48.891C56.6221 48.5118 57.2524 48.5371 57.6305 48.9668C60.9837 52.5563 66.3538 53.1629 70.4381 50.4329C72.5559 48.9668 73.993 46.7676 74.472 44.2145C74.5224 43.8606 74.7746 43.5573 75.1275 43.4309C75.4805 43.3045 75.8587 43.3803 76.136 43.6331C76.4385 43.8353 76.5646 44.2145 76.4637 44.5937Z" fill="#0C0B0B"/>
<path d="M56.6979 35.7716C56.6979 36.3277 56.2441 36.7828 55.6894 36.7828C53.8994 36.7828 52.2102 37.4905 50.9244 38.7544C49.6386 40.0183 48.9579 41.7372 48.9579 43.532C48.9579 44.0881 48.504 44.5431 47.9494 44.5431C47.6721 44.5431 47.4199 44.442 47.2435 44.2398C47.0418 44.0376 46.9409 43.7848 46.9409 43.532C46.9409 38.6786 50.874 34.7605 55.7146 34.7352C56.2441 34.7352 56.6979 35.1902 56.6979 35.7716Z" fill="#0C0B0B"/>
<path d="M63.5804 1.24184V3.39047C63.5804 3.94659 63.1266 4.40159 62.5719 4.40159C62.0173 4.40159 61.5635 3.94659 61.5635 3.39047V1.24184C61.5635 0.685718 62.0173 0.230713 62.5719 0.230713C63.1266 0.230713 63.5804 0.685718 63.5804 1.24184Z" fill="#0C0B0B"/>
<path d="M100.113 16.8132L97.9445 18.9871C97.6924 19.2399 97.3142 19.3662 96.9613 19.2651C96.6083 19.164 96.331 18.886 96.2301 18.5321C96.1293 18.1782 96.2301 17.799 96.5074 17.5209L98.6505 15.3723H98.6757C98.8774 15.1701 99.1295 15.069 99.4068 15.069C99.4824 15.069 99.5833 15.069 99.6589 15.0942C100.012 15.1954 100.289 15.4734 100.39 15.8273C100.491 16.1559 100.39 16.5351 100.113 16.8132Z" fill="#0C0B0B"/>
<path d="M28.8388 18.6332C28.6876 19.0124 28.3094 19.2651 27.906 19.2651C27.6287 19.2651 27.3766 19.164 27.2001 18.9618L25.0319 16.7879C24.7545 16.5351 24.6537 16.1559 24.7545 15.802C24.8554 15.4482 25.1327 15.1701 25.4857 15.069C25.5613 15.0437 25.6622 15.0437 25.7378 15.0437C26.0151 15.0437 26.2672 15.1448 26.4941 15.3723L28.6371 17.521C28.9145 17.8243 28.9901 18.254 28.8388 18.6332Z" fill="#0C0B0B"/>
<path d="M45.4027 9.55835C45.3019 9.81113 45.1002 10.0133 44.848 10.1145C44.722 10.165 44.5959 10.1903 44.4447 10.1903C44.0413 10.1903 43.6631 9.93752 43.5118 9.55835L41.0411 3.54217C40.8898 3.21355 40.9402 2.8091 41.1671 2.50577C41.3688 2.25299 41.6714 2.10132 41.9739 2.10132C42.0243 2.10132 42.0747 2.10132 42.1252 2.10132C42.4781 2.15187 42.8059 2.40466 42.9319 2.75855L45.4027 8.74945C45.5036 9.02751 45.5036 9.30556 45.4027 9.55835Z" fill="#0C0B0B"/>
<path d="M84.103 3.59269L81.6322 9.58359C81.5566 9.78581 81.4305 9.93748 81.254 10.0386C81.1028 10.1397 80.9011 10.2155 80.6994 10.2155C80.5733 10.2155 80.4221 10.1903 80.3212 10.1397C80.0691 10.0386 79.8674 9.83637 79.7666 9.58359C79.6657 9.33081 79.6657 9.05275 79.7666 8.79997L82.2373 2.83434C82.3886 2.4299 82.792 2.20239 83.1701 2.20239C83.2962 2.20239 83.4223 2.22767 83.5483 2.27823C83.8004 2.37934 84.0021 2.58156 84.103 2.83434C84.2038 3.06185 84.2038 3.33991 84.103 3.59269Z" fill="#0C0B0B"/>
<path d="M113.273 32.5108C113.223 32.8647 112.996 33.1933 112.643 33.3197L106.668 35.797C106.541 35.8475 106.415 35.8728 106.289 35.8728C105.81 35.8728 105.382 35.5189 105.281 35.0639C105.18 34.5836 105.432 34.1033 105.886 33.9264L111.861 31.4491C111.987 31.3986 112.113 31.3733 112.239 31.3733C112.466 31.3733 112.668 31.4491 112.87 31.5755C113.172 31.803 113.323 32.1569 113.273 32.5108Z" fill="#0C0B0B"/>
<path d="M19.7874 35.2408C19.5857 35.7717 18.9806 35.9992 18.4512 35.797L12.476 33.3197C12.2239 33.2186 12.0222 33.0164 11.9213 32.7636C11.8205 32.5108 11.8205 32.2328 11.9213 31.98C12.0222 31.7272 12.2239 31.525 12.476 31.4239C12.6021 31.3733 12.7281 31.348 12.8542 31.348C12.9802 31.348 13.1315 31.3733 13.2324 31.4239L19.2075 33.9011C19.4597 34.0022 19.6614 34.2044 19.7622 34.4572C19.8883 34.71 19.8883 34.9881 19.7874 35.2408Z" fill="#0C0B0B"/>
</g>
<defs>
<clipPath id="clip0">
<rect width="125" height="125" fill="white" transform="translate(0.0722656 0.230713)"/>
</clipPath>
</defs>
</svg>
