<svg width="52" height="53" viewBox="0 0 52 53" fill="none" xmlns="http://www.w3.org/2000/svg">
<path d="M48.8406 28.2543C46.9212 27.6043 44.886 28.2248 43.6549 29.8344L37.9813 37.2537C37.9822 37.2134 37.9844 37.1732 37.9844 37.1326C37.9844 34.3325 35.7063 32.0545 32.9062 32.0545H22.828C19.6149 29.3208 15.0737 28.8344 11.375 30.7491V30.5311C11.375 29.6897 10.6929 29.0076 9.85156 29.0076H1.52344C0.682094 29.0076 0 29.6897 0 30.5311V50.8435C0 51.6849 0.682094 52.367 1.52344 52.367H9.85156C10.6929 52.367 11.375 51.6849 11.375 50.8435V49.3201H36.3456C39.9911 49.3201 43.3445 47.4893 45.316 44.4227L51.2613 35.1743C51.7446 34.4226 52 33.5529 52 32.6593C52 30.6331 50.7598 28.9039 48.8406 28.2543ZM8.32812 49.3201H3.04688V32.0545H8.32812V49.3201ZM48.6984 33.5267L42.753 42.7751C41.3449 44.9655 38.9495 46.2732 36.3456 46.2732H11.375V34.3619L11.8845 33.998C14.7424 31.9565 18.6544 32.2417 21.1862 34.6761C21.47 34.949 21.8484 35.1015 22.2421 35.1015H32.9061C34.0262 35.1015 34.9374 36.0127 34.9374 37.1327C34.9374 38.2527 34.0262 39.164 32.9061 39.164H22.2422H22.0391C21.1977 39.164 20.5156 39.8461 20.5156 40.6874C20.5156 41.5287 21.1977 42.2108 22.0391 42.2108H22.2422H32.9062H34.2621C36.6192 42.2108 38.8811 41.093 40.3129 39.2207L46.0752 31.6853C46.7235 30.8376 47.6079 31.0538 47.8636 31.1404C48.1192 31.2271 48.9531 31.5923 48.9531 32.6596C48.9531 32.9675 48.8651 33.2675 48.6984 33.5267Z" fill="white"/>
<path d="M15.0164 9.05385L21.1094 11.2042V19.8047C21.1094 20.6461 21.7915 21.3282 22.6328 21.3282H42.9453C43.7867 21.3282 44.4688 20.6461 44.4688 19.8047V11.2042L48.5312 9.77037V15.7422C48.5312 16.5836 49.2133 17.2657 50.0547 17.2657C50.896 17.2657 51.5781 16.5836 51.5781 15.7422V7.61725C51.5781 6.97142 51.1708 6.39566 50.5617 6.18065L33.2961 0.086912C32.968 -0.0289707 32.6101 -0.0289707 32.2821 0.086912L15.0164 6.18065C14.4074 6.39566 14 6.97142 14 7.61725C14 8.26309 14.4074 8.83884 15.0164 9.05385ZM41.4219 18.2813H24.1562V12.2796L32.2821 15.1475C32.4461 15.2054 32.6176 15.2343 32.7891 15.2343C32.9605 15.2343 33.132 15.2054 33.2961 15.1475L41.4219 12.2796V18.2813ZM32.7891 3.13906L45.4774 7.61725L32.7891 12.0954L20.1008 7.61725L32.7891 3.13906Z" fill="white"/>
</svg>
