<svg width="54" height="54" viewBox="0 0 54 54" fill="none" xmlns="http://www.w3.org/2000/svg">
<path d="M27 13.2891C26.4179 13.2891 25.9453 13.7616 25.9453 14.3438C25.9453 14.9259 26.4179 15.3984 27 15.3984C27.5821 15.3984 28.0547 14.9259 28.0547 14.3438C28.0547 13.7616 27.5821 13.2891 27 13.2891Z" fill="black"/>
<path d="M9.49219 32.2734C10.0743 32.2734 10.5469 31.8009 10.5469 31.2188C10.5469 30.6366 10.0743 30.1641 9.49219 30.1641C8.91005 30.1641 8.4375 30.6366 8.4375 31.2188C8.4375 31.8009 8.91005 32.2734 9.49219 32.2734Z" fill="black"/>
<path d="M35.4375 2.74219C25.9424 2.74219 18.1493 9.28867 17.5465 17.5346C8.50383 17.9882 0 24.5087 0 33.3281C0 37.0138 1.45844 40.5849 4.11328 43.4144C4.63857 45.5798 4.00081 47.875 2.41837 49.4574C2.11679 49.759 2.02657 50.2126 2.18971 50.6069C2.35286 51.0007 2.73724 51.2578 3.16406 51.2578C6.17198 51.2578 9.07072 50.0783 11.2246 47.9998C13.3228 48.715 16.0605 49.1484 18.5625 49.1484C28.0563 49.1484 35.8487 42.6036 36.453 34.3593C38.6613 34.2613 40.9581 33.8534 42.7754 33.2342C44.9293 35.3127 47.828 36.4922 50.8359 36.4922C51.2628 36.4922 51.6471 36.2351 51.8103 35.8412C51.9734 35.447 51.8832 34.9934 51.5816 34.6918C49.9992 33.1094 49.3614 30.8142 49.8867 28.6488C52.5416 25.8192 54 22.2481 54 18.5625C54 9.39867 44.8411 2.74219 35.4375 2.74219ZM18.5625 47.0391C16.0733 47.0391 13.2367 46.5504 11.3367 45.7944C10.9296 45.6321 10.4645 45.7388 10.1683 46.0622C8.89481 47.4543 7.23903 48.425 5.43494 48.8712C6.42906 46.9666 6.68285 44.7212 6.07805 42.5937C6.03026 42.426 5.94168 42.2728 5.82014 42.1479C3.42732 39.6834 2.10938 36.5511 2.10938 33.3281C2.10938 25.8959 9.6438 19.6172 18.5625 19.6172C26.9843 19.6172 34.3828 25.4736 34.3828 33.3281C34.3828 40.8885 27.2859 47.0391 18.5625 47.0391ZM48.1799 27.3823C48.0583 27.5076 47.9697 27.6608 47.922 27.8281C47.3172 29.9556 47.5709 32.2009 48.5651 34.1055C46.761 33.6598 45.1052 32.6887 43.8317 31.2966C43.5355 30.9736 43.0704 30.8665 42.6633 31.0288C41.0166 31.6839 38.6675 32.1375 36.4498 32.2471C36.1416 28.2586 34.1521 24.5099 30.7507 21.7266H44.5078C45.0904 21.7266 45.5625 21.2544 45.5625 20.6719C45.5625 20.0893 45.0904 19.6172 44.5078 19.6172H27.5105C25.1164 18.3985 22.4282 17.6879 19.6613 17.5387C20.2673 10.455 27.1116 4.85156 35.4375 4.85156C44.3562 4.85156 51.8906 11.1302 51.8906 18.5625C51.8906 21.7855 50.5727 24.9178 48.1799 27.3823Z" fill="black"/>
<path d="M27 30.1641H13.7109C13.1284 30.1641 12.6562 30.6362 12.6562 31.2188C12.6562 31.8013 13.1284 32.2734 13.7109 32.2734H27C27.5826 32.2734 28.0547 31.8013 28.0547 31.2188C28.0547 30.6362 27.5826 30.1641 27 30.1641Z" fill="black"/>
<path d="M27 36.4922H9.49219C8.90964 36.4922 8.4375 36.9643 8.4375 37.5469C8.4375 38.1294 8.90964 38.6016 9.49219 38.6016H27C27.5826 38.6016 28.0547 38.1294 28.0547 37.5469C28.0547 36.9643 27.5826 36.4922 27 36.4922Z" fill="black"/>
<path d="M44.5078 13.2891H31.2188C30.6362 13.2891 30.1641 13.7612 30.1641 14.3438C30.1641 14.9263 30.6362 15.3984 31.2188 15.3984H44.5078C45.0904 15.3984 45.5625 14.9263 45.5625 14.3438C45.5625 13.7612 45.0904 13.2891 44.5078 13.2891Z" fill="black"/>
</svg>
