<svg width="52" height="52" viewBox="0 0 52 52" fill="none" xmlns="http://www.w3.org/2000/svg">
<path d="M9.8408 19.92H13.1211V6.79893C13.1211 3.17568 10.1838 0.238403 6.56053 0.238403C2.93727 0.238403 0 3.17568 0 6.79893V19.92H3.28027V14.9996H9.8408V19.92ZM3.28027 11.7193V6.79893C3.28027 4.98731 4.7489 3.51867 6.56053 3.51867C8.37216 3.51867 9.8408 4.98731 9.8408 6.79893V11.7193H3.28027Z" fill="black"/>
<path d="M29.5224 14.1795C29.522 12.6344 28.896 11.1552 27.7872 10.0792C30.0563 7.87159 30.106 4.24238 27.8984 1.97336C26.8172 0.862172 25.3322 0.236256 23.782 0.238409H16.4014V19.92H23.782C26.9523 19.92 29.5224 17.3499 29.5224 14.1795ZM19.6816 3.51867H23.782C25.1407 3.51867 26.2422 4.62013 26.2422 5.97887C26.2422 7.33762 25.1407 8.43907 23.782 8.43907H19.6816V3.51867ZM19.6816 11.7193H23.782C25.1407 11.7193 26.2422 12.8208 26.2422 14.1795C26.2422 15.5383 25.1407 16.6397 23.782 16.6397H19.6816V11.7193Z" fill="black"/>
<path d="M39.3633 19.92C42.9865 19.92 45.9238 16.9827 45.9238 13.3595H42.6435C42.6435 15.1711 41.1749 16.6397 39.3633 16.6397C37.5516 16.6397 36.083 15.1711 36.083 13.3595V6.79893C36.083 4.98731 37.5516 3.51867 39.3633 3.51867C41.1749 3.51867 42.6435 4.98731 42.6435 6.79893H45.9238C45.9238 3.17568 42.9865 0.238403 39.3633 0.238403C35.74 0.238403 32.8027 3.17568 32.8027 6.79893V13.3595C32.8027 16.9827 35.74 19.92 39.3633 19.92Z" fill="black"/>
<path d="M19.6815 47.1233L9.36016 36.8019L7.04102 39.1211L19.6815 51.7616L42.7254 28.7177L40.4062 26.3986L19.6815 47.1233Z" fill="black"/>
<path d="M49.6798 17.123L47.3604 19.4425L49.6798 21.762L51.9993 19.4425L49.6798 17.123Z" fill="black"/>
<path d="M42.7259 24.0807L45.0454 26.4001L47.3649 24.0807L45.0454 21.7612L42.7259 24.0807Z" fill="black"/>
</svg>
