<svg width="54" height="54" viewBox="0 0 54 54" fill="none" xmlns="http://www.w3.org/2000/svg">
<g clip-path="url(#clip0)">
<path d="M52.9533 10.8523C52.9497 10.8523 52.9462 10.8523 52.9428 10.8523H49.3945V9.63808C49.4136 9.1575 49.1027 8.7256 48.6408 8.59136C46.1774 7.9458 43.6407 7.62211 41.094 7.62839C36.9072 7.62839 31.2026 8.57043 26.9843 12.862C22.7974 8.52856 17.051 7.62839 12.8746 7.62839C10.3279 7.62211 7.79122 7.9458 5.32778 8.59136C4.86591 8.7256 4.55504 9.1575 4.57414 9.63808V10.8418H1.04671C0.468666 10.8418 0 11.3105 0 11.8885V45.3206C0 45.8986 0.468666 46.3673 1.04671 46.3673C1.22649 46.3668 1.40312 46.3199 1.5596 46.2312C1.66428 46.1789 12.1314 40.4534 26.7436 44.1378H26.9006H26.9948C27.0782 44.1479 27.1625 44.1479 27.246 44.1378C41.9 40.4219 52.3671 46.137 52.4299 46.2312C52.7538 46.4182 53.1528 46.4182 53.4766 46.2312C53.7985 46.0454 53.9978 45.7028 54 45.331V11.899C54 11.3209 53.5315 10.8523 52.9533 10.8523ZM2.09343 43.6563V12.9457H4.59508V39.1973C4.58853 39.7753 5.05184 40.2492 5.62988 40.2558C5.68641 40.2564 5.74293 40.2525 5.7988 40.244C7.96419 39.9134 10.1504 39.7384 12.3408 39.7207C15.3749 39.6681 18.3964 40.1244 21.2797 41.0709C14.7685 40.2835 8.16398 41.1735 2.09343 43.6563ZM12.3408 37.6377C10.4369 37.642 8.5353 37.7643 6.64664 38.004V10.465C8.68459 10.011 10.7657 9.77925 12.8537 9.77415C16.7684 9.77415 22.1694 10.6743 25.9166 14.9031L25.9481 40.9767C23.7709 39.5532 19.5212 37.6377 12.3408 37.6377ZM28.0415 14.9031C31.7887 10.7162 37.1898 9.77415 41.1045 9.77415C43.1923 9.7803 45.2734 10.0119 47.3115 10.465V38.004C45.4334 37.7621 43.5423 37.6363 41.6488 37.6272C34.5102 37.6272 30.25 39.5427 28.0415 40.9662V14.9031ZM51.8961 43.6563C45.8126 41.1667 39.1929 40.2766 32.668 41.0709C35.5649 40.121 38.6007 39.6645 41.6488 39.7207C43.8529 39.733 46.0532 39.9043 48.2326 40.2335C48.8041 40.3203 49.3378 39.9272 49.4245 39.3557C49.4331 39.2999 49.437 39.2433 49.4363 39.1868V12.9457H51.938L51.8961 43.6563Z" fill="black"/>
</g>
<defs>
<clipPath id="clip0">
<rect width="54" height="54" fill="white"/>
</clipPath>
</defs>
</svg>
