<svg width="32" height="32" viewBox="0 0 32 32" fill="none" xmlns="http://www.w3.org/2000/svg">
<g clip-path="url(#clip0)">
<rect width="32" height="32" fill="white" style="mix-blend-mode:darken"/>
<path d="M31.1326 15.0987C31.6806 14.548 31.9992 13.8014 31.9992 13C31.9992 11.844 31.338 10.8281 30.354 10.3321C30.558 9.92409 30.666 9.4721 30.666 9.00011C30.666 7.84414 30.0033 6.82685 29.0193 6.33217C29.3233 5.72419 29.4126 5.0242 29.2593 4.32953C28.9606 2.97888 27.69 2.00027 26.2381 2.00027H13.9997C13.073 2.00027 11.5797 2.30027 10.4704 2.87094C10.0065 1.58697 8.77448 0.666992 7.3332 0.666992H3.3333C1.49465 0.666992 0 2.16158 0 4.00023V14.6667C0 16.5053 1.49465 17.9999 3.33323 17.9999H9.99977C10.3678 17.9999 10.6664 17.7012 10.6664 17.3332V17.0785L10.8251 17.1585L14.6663 25.4783V29.9996C14.6663 30.2022 14.7583 30.3942 14.9157 30.5209C14.9583 30.5529 15.9489 31.3328 17.3329 31.3328C18.8756 31.3328 21.3328 28.8916 21.3328 25.9996C21.3328 24.1757 20.6795 21.9051 20.2715 20.6665H28.5073C30.302 20.6665 31.8286 19.3385 31.9859 17.6438C32.0726 16.6932 31.7553 15.78 31.1326 15.0987ZM29.7073 15.636C30.362 16.0399 30.7273 16.7626 30.6566 17.5226C30.5633 18.5373 29.6193 19.3332 28.5073 19.3332H19.3329C19.1142 19.3332 18.9089 19.4412 18.7836 19.6212C18.6596 19.8025 18.6316 20.0332 18.7102 20.2372C18.7222 20.2705 19.9995 23.6531 19.9995 25.9998C19.9995 28.1837 18.0636 29.9997 17.3329 29.9997C16.7582 29.9997 16.2756 29.7904 15.9996 29.6384V25.3332C15.9996 25.2372 15.9783 25.1412 15.9369 25.0532L11.937 16.3867C11.8743 16.2507 11.7663 16.1387 11.6304 16.0707L10.2971 15.404C10.0904 15.3 9.84377 15.3133 9.64909 15.432C9.45309 15.5547 9.33309 15.7693 9.33309 16V16.6667H3.33323C2.23057 16.6667 1.33328 15.7694 1.33328 14.6667V4.00023C1.33328 2.89756 2.23057 2.00027 3.33323 2.00027H7.33314C8.4358 2.00027 9.33309 2.89756 9.33309 4.00023C9.33309 4.26953 9.49578 4.51353 9.74508 4.61621C9.99308 4.71752 10.2798 4.66152 10.4718 4.47222C11.1011 3.84154 12.917 3.33355 13.9997 3.33355H26.2381C27.0701 3.33355 27.7927 3.87223 27.9567 4.61884C28.0887 5.21482 27.9127 5.7935 27.474 6.20811C27.2847 6.38542 27.2154 6.6561 27.298 6.9041C27.3807 7.15078 27.598 7.32677 27.8553 7.35609C28.6966 7.45208 29.3326 8.15875 29.3326 9.00005C29.3326 9.45872 29.1446 9.88802 28.8073 10.208C28.618 10.3853 28.5486 10.656 28.6313 10.904C28.714 11.1507 28.9313 11.3267 29.1886 11.356C30.0299 11.452 30.6659 12.1587 30.6659 13C30.6659 13.6213 30.3166 14.1866 29.7526 14.4746C29.5393 14.5853 29.4019 14.8013 29.3913 15.0426C29.382 15.2826 29.5033 15.5093 29.7073 15.636Z" fill="#2FC44D"/>
<path d="M29.7073 15.636C30.362 16.0399 30.7273 16.7626 30.6566 17.5226C30.5633 18.5373 29.6193 19.3332 28.5073 19.3332H19.3329C19.1142 19.3332 18.9089 19.4412 18.7836 19.6212C18.6596 19.8025 18.6316 20.0332 18.7102 20.2372C18.7222 20.2705 19.9995 23.6531 19.9995 25.9998C19.9995 28.1837 18.0636 29.9997 17.3329 29.9997C16.7582 29.9997 16.2756 29.7904 15.9996 29.6384V25.3332C15.9996 25.2372 15.9783 25.1412 15.9369 25.0532L11.937 16.3867C11.8743 16.2507 11.7663 16.1387 11.6304 16.0707L10.2971 15.404C10.0904 15.3 9.84377 15.3133 9.64909 15.432C9.45309 15.5547 9.33309 15.7693 9.33309 16V16.6667H3.33323C2.23057 16.6667 1.33328 15.7694 1.33328 14.6667V4.00023C1.33328 2.89756 2.23057 2.00027 3.33323 2.00027H7.33314C8.4358 2.00027 9.33309 2.89756 9.33309 4.00023C9.33309 4.26953 9.49578 4.51353 9.74508 4.61621C9.99308 4.71752 10.2798 4.66152 10.4718 4.47222C11.1011 3.84154 12.917 3.33355 13.9997 3.33355H26.2381C27.0701 3.33355 27.7927 3.87223 27.9567 4.61884C28.0887 5.21482 27.9127 5.7935 27.474 6.20811C27.2847 6.38542 27.2154 6.6561 27.298 6.9041C27.3807 7.15078 27.598 7.32677 27.8553 7.35609C28.6966 7.45208 29.3326 8.15875 29.3326 9.00005C29.3326 9.45872 29.1446 9.88802 28.8073 10.208C28.618 10.3853 28.5486 10.656 28.6313 10.904C28.714 11.1507 28.9313 11.3267 29.1886 11.356C30.0299 11.452 30.6659 12.1587 30.6659 13C30.6659 13.6213 30.3166 14.1866 29.7526 14.4746C29.5393 14.5853 29.4019 14.8013 29.3913 15.0426C29.382 15.2826 29.5033 15.5093 29.7073 15.636Z" fill="#2FC44D"/>
<path d="M9.99968 3.33362C9.63169 3.33362 9.33301 3.6323 9.33301 4.00029V16C9.33301 16.368 9.63169 16.6667 9.99968 16.6667C10.3677 16.6667 10.6664 16.368 10.6664 16V4.00029C10.6664 3.6323 10.3677 3.33362 9.99968 3.33362Z" fill="#2FC44D"/>
</g>
<defs>
<clipPath id="clip0">
<rect width="32" height="32" fill="white"/>
</clipPath>
</defs>
</svg>
