<svg width="52" height="52" viewBox="0 0 52 52" fill="none" xmlns="http://www.w3.org/2000/svg">
<path d="M48.537 5.19135H31.2326V3.4609C31.2326 1.5574 29.6752 0 27.7717 0H3.54537C1.64188 0 0.0844727 1.5574 0.0844727 3.4609V22.4958C0.0844727 32.0133 9.16933 32.0133 12.1976 32.0133C12.7168 32.0133 13.0628 31.6672 13.0628 31.1481C13.0628 30.629 12.7168 30.2829 12.1976 30.2829C10.2941 30.2829 8.73672 28.7255 8.73672 26.822C8.73672 26.7354 8.73672 26.5624 8.73672 26.4759C8.99629 24.6589 10.5537 23.3611 12.3707 23.3611H24.3108V25.0915H16.5237C16.0046 25.0915 15.6585 25.4376 15.6585 25.9567C15.6585 27.9468 16.4372 29.8503 17.7351 31.2346C17.4755 32.0998 17.389 32.8785 17.389 33.7438C17.389 37.2047 19.4655 40.3195 22.5803 41.7038C22.5803 42.223 22.3207 43.2612 19.9846 43.2612C17.562 43.2612 15.6585 45.1647 15.6585 47.5874V51.9135H17.389V47.5874C17.389 46.203 18.4272 45.0782 19.8116 44.9917L24.0512 47.0682C24.3973 47.2413 24.8299 47.4143 25.176 47.5008V51.9135H26.9064V47.5008C27.339 47.4143 27.6851 47.3278 28.0312 47.1547L32.2708 45.0782C33.6552 45.1647 34.6935 46.2895 34.6935 47.6739V52H36.4239V47.6739C36.4239 45.2512 34.5204 43.3478 32.0978 43.3478C29.7617 43.3478 29.5021 42.3095 29.5021 41.7904C32.79 40.406 34.78 37.1181 34.6935 33.5707C34.6935 33.3977 34.6935 33.0516 34.6935 32.9651C34.6935 31.7537 34.4339 30.5424 33.8282 29.5042H39.6252C41.4422 29.5042 42.9996 30.802 43.2592 32.619C43.4322 34.5225 42.0479 36.2529 40.1444 36.426C40.0578 36.426 39.8848 36.426 39.7983 36.426C39.2791 36.426 38.9331 36.772 38.9331 37.2912C38.9331 37.8103 39.2791 38.1564 39.7983 38.1564C42.8266 38.1564 51.9114 38.1564 51.9114 28.6389V8.65225C51.998 6.74875 50.4405 5.19135 48.537 5.19135ZM12.3707 21.6306C9.68847 21.6306 7.35236 23.6206 7.00627 26.3028C6.91975 27.6007 7.26584 28.8985 8.04454 29.9368C3.80494 29.0715 1.81492 26.7354 1.81492 22.4958V3.4609C1.81492 2.50915 2.59362 1.73045 3.54537 1.73045H27.7717C28.7234 1.73045 29.5021 2.50915 29.5021 3.4609V19.9002C29.5021 20.8519 28.7234 21.6306 27.7717 21.6306H12.3707ZM17.4755 26.822H26.9064C29.9347 26.822 32.4439 29.0715 32.8765 32.0133H23.4455C20.4173 32.0133 17.9081 29.7637 17.4755 26.822ZM28.3773 40.2329C28.0312 40.3195 27.7717 40.6656 27.7717 41.0117V41.5308C27.6851 42.7421 28.3773 43.9534 29.5021 44.4725L27.2525 45.5973C26.4738 45.9434 25.5221 45.9434 24.7434 45.5973L22.5803 44.4725C23.7051 43.9534 24.3973 42.7421 24.3108 41.5308V41.0982C24.3108 40.7521 24.0512 40.406 23.7051 40.3195C20.9364 39.2812 19.1194 36.6855 19.1194 33.7438C19.1194 33.3111 19.1194 32.8785 19.2059 32.5324C20.4173 33.3111 21.8881 33.7438 23.4455 33.7438H32.963C32.963 36.6855 31.146 39.2812 28.3773 40.2329ZM50.2675 28.5524C50.2675 32.792 48.2775 35.1281 44.0379 35.9933C44.8166 34.9551 45.1627 33.6572 45.0762 32.3594C44.7301 29.6772 42.4805 27.6872 39.7118 27.6872H32.7034C31.2326 26.0433 29.156 25.0915 26.9064 25.0915H26.0412V23.3611H27.7717C29.6752 23.3611 31.2326 21.8037 31.2326 19.9002V6.9218H48.537C49.4888 6.9218 50.2675 7.7005 50.2675 8.65225V28.5524Z" fill="black"/>
<path d="M19.9847 9.51751H19.1195C18.6004 9.51751 18.2543 9.17142 18.2543 8.65229V6.05661C18.2543 4.58573 17.1295 3.46094 15.6586 3.46094C14.1877 3.46094 13.0629 4.58573 13.0629 6.05661V8.65229C13.0629 9.17142 12.7168 9.51751 12.1977 9.51751C12.1977 8.99838 11.8516 8.65229 11.3325 8.65229H7.87157C7.35244 8.65229 7.00635 8.99838 7.00635 9.51751V19.035C7.00635 19.5541 7.35244 19.9002 7.87157 19.9002H11.3325C11.8516 19.9002 12.1977 19.5541 12.1977 19.035H19.9847C21.4556 19.035 22.5804 17.9102 22.5804 16.4393V12.1132C22.5804 10.6423 21.4556 9.51751 19.9847 9.51751ZM10.4672 18.1698H8.7368V10.3827H10.4672V18.1698ZM20.8499 16.4393C20.8499 16.9584 20.5039 17.3045 19.9847 17.3045H12.1977V11.248C13.6686 11.248 14.7934 10.1232 14.7934 8.65229V6.05661C14.7934 5.53748 15.1395 5.19139 15.6586 5.19139C16.1777 5.19139 16.5238 5.53748 16.5238 6.05661V8.65229C16.5238 10.1232 17.6486 11.248 19.1195 11.248H19.9847C20.5039 11.248 20.8499 11.594 20.8499 12.1132V16.4393Z" fill="black"/>
<path d="M47.6722 8.65222H44.2113C43.6922 8.65222 43.3461 8.99831 43.3461 9.51745H35.5591C34.0882 9.51745 32.9634 10.6422 32.9634 12.1131V16.4392C32.9634 17.9101 34.0882 19.0349 35.5591 19.0349H36.4243C36.9434 19.0349 37.2895 19.381 37.2895 19.9001V22.4958C37.2895 23.9667 38.4143 25.0915 39.8852 25.0915C41.3561 25.0915 42.4808 23.9667 42.4808 22.4958V19.9001C42.4808 19.381 42.8269 19.0349 43.3461 19.0349C43.3461 19.5541 43.6922 19.9001 44.2113 19.9001H47.6722C48.1913 19.9001 48.5374 19.5541 48.5374 19.0349V9.51745C48.5374 8.99831 48.1913 8.65222 47.6722 8.65222ZM43.3461 17.3045C41.8752 17.3045 40.7504 18.4293 40.7504 19.9001V22.4958C40.7504 23.015 40.4043 23.361 39.8852 23.361C39.366 23.361 39.02 23.015 39.02 22.4958V19.9001C39.02 18.4293 37.8952 17.3045 36.4243 17.3045H35.5591C35.0399 17.3045 34.6938 16.9584 34.6938 16.4392V12.1131C34.6938 11.594 35.0399 11.2479 35.5591 11.2479H43.3461V17.3045ZM46.807 18.1697H45.0765V10.3827H46.807V18.1697Z" fill="black"/>
<path d="M35.559 22.4958H32.0981V24.2263H35.559V22.4958Z" fill="black"/>
<path d="M23.4458 4.32616V3.46094H21.7153V4.32616H20.8501V6.05661H21.7153V6.92184H23.4458V6.05661H24.311V4.32616H23.4458Z" fill="black"/>
</svg>
