<svg width="33" height="33" viewBox="0 0 33 33" fill="none" xmlns="http://www.w3.org/2000/svg">
<path d="M16.4995 32.338C21.6189 32.338 26.1727 29.9317 29.1012 26.1909H20.6743C19.5864 29.8173 18.9793 32.338 16.4995 32.338Z" fill="#C42126"/>
<path d="M15.5508 32.3103C15.5478 32.3103 15.545 32.3098 15.542 32.3098C15.545 32.3098 15.5481 32.3103 15.5508 32.3103Z" fill="#C42126"/>
<path d="M20.6743 6.48498H29.1014C26.1726 2.74475 21.6188 0.337891 16.4995 0.337891C18.9793 0.337891 19.5864 2.85865 20.6743 6.48498Z" fill="#C42126"/>
<path d="M15.542 0.36647C15.545 0.36647 15.5478 0.365997 15.5508 0.365997C15.5481 0.36593 15.545 0.36593 15.542 0.36647Z" fill="#C42126"/>
<path d="M29.1022 6.48486H20.6748C22.3756 12.1535 22.3756 20.5228 20.6748 26.1906H29.1014C31.2286 23.4743 32.5001 20.0559 32.5001 16.3379C32.5003 12.6201 31.2288 9.20147 29.1022 6.48486Z" fill="#FFC40C"/>
<path d="M16.4997 32.3379C16.1814 32.3379 15.8651 32.3285 15.5508 32.3103C15.8695 32.328 16.1864 32.3379 16.4997 32.3379Z" fill="#C42126"/>
<path d="M15.5508 0.365927C15.865 0.347214 16.1814 0.337891 16.4997 0.337891C16.1864 0.337891 15.8695 0.348227 15.5508 0.365927Z" fill="#C42126"/>
<path d="M21.8513 26.1909H3.89844C6.64281 29.6967 10.8153 32.0306 15.5418 32.31C15.5449 32.31 15.5477 32.3104 15.5507 32.3104C15.865 32.3286 16.1813 32.338 16.4996 32.338C18.9794 32.338 20.7633 29.8173 21.8513 26.1909Z" fill="#D32030"/>
<path d="M3.89844 6.48498H21.8514C20.7633 2.85865 18.9794 0.337891 16.4997 0.337891C16.1813 0.337891 15.865 0.347214 15.5508 0.365927C15.5477 0.365927 15.545 0.3664 15.5419 0.3664C10.8153 0.645613 6.64281 2.97971 3.89844 6.48498Z" fill="#D32030"/>
<path d="M0.5 16.3379C0.5 20.0559 1.77149 23.4743 3.89867 26.1906H21.8516C23.5524 20.5225 23.5524 12.1532 21.8516 6.48486H3.89867C1.77149 9.20147 0.5 12.6201 0.5 16.3379Z" fill="#FFD034"/>
</svg>
