<svg width="475" height="270" viewBox="0 0 475 270" fill="none" xmlns="http://www.w3.org/2000/svg">
<path d="M28.8252 266.656H27.6509V260.759H24.4897V266.656H23.3091V259.788H28.8252V266.656ZM30.3994 263.159C30.3994 262.486 30.5306 261.881 30.793 261.343C31.0596 260.806 31.4277 260.391 31.8975 260.099C32.3714 259.807 32.911 259.661 33.5161 259.661C34.4513 259.661 35.2067 259.985 35.7822 260.632C36.362 261.28 36.6519 262.141 36.6519 263.216V263.298C36.6519 263.967 36.5228 264.568 36.2646 265.101C36.0107 265.63 35.6447 266.043 35.1665 266.339C34.6925 266.635 34.1466 266.783 33.5288 266.783C32.5978 266.783 31.8424 266.459 31.2627 265.812C30.6872 265.164 30.3994 264.307 30.3994 263.241V263.159ZM31.5801 263.298C31.5801 264.06 31.7557 264.671 32.1069 265.133C32.4624 265.594 32.9364 265.825 33.5288 265.825C34.1255 265.825 34.5994 265.592 34.9507 265.126C35.3019 264.657 35.4775 264.001 35.4775 263.159C35.4775 262.405 35.2977 261.796 34.938 261.33C34.5825 260.861 34.1086 260.626 33.5161 260.626C32.9364 260.626 32.4688 260.856 32.1133 261.318C31.7578 261.779 31.5801 262.439 31.5801 263.298ZM43.7358 266.656H42.5615V263.724H39.4067V266.656H38.2261V259.788H39.4067V262.765H42.5615V259.788H43.7358V266.656Z" fill="#0C0B0B"/>
<path d="M8.58244 233.044C8.58244 234.42 8.34757 235.442 7.87785 236.11C7.40812 236.779 6.67391 237.113 5.67521 237.113C4.68921 237.113 3.95923 236.787 3.48527 236.136C3.01131 235.48 2.76587 234.502 2.74894 233.203V231.635C2.74894 230.277 2.9838 229.267 3.45353 228.607C3.92326 227.947 4.65958 227.617 5.66251 227.617C6.65698 227.617 7.38908 227.937 7.8588 228.576C8.32853 229.21 8.56974 230.192 8.58244 231.521V233.044ZM7.40812 231.438C7.40812 230.444 7.26847 229.72 6.98917 229.267C6.70988 228.81 6.26766 228.582 5.66251 228.582C5.0616 228.582 4.62361 228.808 4.34855 229.261C4.07348 229.714 3.93172 230.41 3.92326 231.349V233.228C3.92326 234.227 4.06714 234.966 4.3549 235.444C4.64689 235.918 5.08699 236.155 5.67521 236.155C6.25496 236.155 6.68449 235.93 6.96378 235.482C7.24731 235.033 7.39542 234.327 7.40812 233.362V231.438Z" fill="#0C0B0B"/>
<path d="M6.6464 192.06H5.46574V184.233L3.09806 185.103V184.036L6.46232 182.773H6.6464V192.06Z" fill="#0C0B0B"/>
<path d="M8.84269 147.133H2.78703V146.289L5.98624 142.734C6.4602 142.197 6.78605 141.761 6.96378 141.427C7.14575 141.088 7.23673 140.739 7.23673 140.379C7.23673 139.897 7.09074 139.501 6.79874 139.192C6.50675 138.883 6.11743 138.729 5.63078 138.729C5.04679 138.729 4.59188 138.896 4.26603 139.23C3.94441 139.561 3.78361 140.022 3.78361 140.614H2.60929C2.60929 139.764 2.88224 139.076 3.42814 138.551C3.97827 138.027 4.71248 137.764 5.63078 137.764C6.48982 137.764 7.16902 137.991 7.66837 138.443C8.16772 138.892 8.4174 139.491 8.4174 140.24C8.4174 141.15 7.83764 142.233 6.67814 143.49L4.20255 146.175H8.84269V147.133Z" fill="#0C0B0B"/>
<path d="M4.49454 97.0144H5.37687C5.93123 97.0059 6.3671 96.8599 6.68449 96.5764C7.00187 96.2929 7.16056 95.9099 7.16056 95.4275C7.16056 94.3442 6.62101 93.8025 5.54191 93.8025C5.0341 93.8025 4.62785 93.9485 4.32316 94.2405C4.0227 94.5282 3.87247 94.9112 3.87247 95.3894H2.69816C2.69816 94.6573 2.96476 94.05 3.49796 93.5676C4.0354 93.081 4.71671 92.8376 5.54191 92.8376C6.41365 92.8376 7.09708 93.0683 7.5922 93.5295C8.08732 93.9908 8.33488 94.6319 8.33488 95.4529C8.33488 95.8549 8.20369 96.2442 7.94132 96.6208C7.68318 96.9975 7.32983 97.2789 6.88126 97.4651C7.38908 97.6259 7.78052 97.8925 8.05558 98.2649C8.33488 98.6373 8.47453 99.0922 8.47453 99.6296C8.47453 100.459 8.20369 101.117 7.66203 101.604C7.12036 102.09 6.41577 102.334 5.54826 102.334C4.68074 102.334 3.97404 102.099 3.42814 101.629C2.88647 101.159 2.61564 100.539 2.61564 99.7693H3.7963C3.7963 100.256 3.95499 100.645 4.27238 100.937C4.58976 101.229 5.01505 101.375 5.54826 101.375C6.11531 101.375 6.54907 101.227 6.84953 100.931C7.14998 100.635 7.30021 100.209 7.30021 99.655C7.30021 99.1176 7.13517 98.705 6.80509 98.4172C6.47501 98.1295 5.99894 97.9814 5.37687 97.9729H4.49454V97.0144Z" fill="#0C0B0B"/>
<path d="M7.74454 54.1765H9.02677V55.135H7.74454V57.2805H6.56388V55.135H2.35538V54.4431L6.49406 48.0383H7.74454V54.1765ZM3.68839 54.1765H6.56388V49.6443L6.42423 49.8982L3.68839 54.1765Z" fill="#0C0B0B"/>
<path d="M3.32658 7.72021L3.7963 3.11182H8.53165V4.19727H4.79288L4.51359 6.71729C4.96639 6.45068 5.48055 6.31738 6.05607 6.31738C6.89819 6.31738 7.56681 6.59668 8.06193 7.15527C8.55704 7.70964 8.8046 8.46077 8.8046 9.40869C8.8046 10.3608 8.54647 11.112 8.03019 11.6621C7.51815 12.208 6.80086 12.481 5.87833 12.481C5.0616 12.481 4.3951 12.2546 3.87882 11.8018C3.36255 11.349 3.06844 10.7227 2.9965 9.92285H4.10734C4.17928 10.4518 4.36759 10.8517 4.67228 11.1226C4.97697 11.3892 5.37899 11.5225 5.87833 11.5225C6.42423 11.5225 6.85164 11.3363 7.16056 10.9639C7.47371 10.5915 7.63029 10.0773 7.63029 9.42139C7.63029 8.80355 7.46102 8.30843 7.12247 7.93604C6.78816 7.55941 6.34171 7.37109 5.78312 7.37109C5.27107 7.37109 4.86906 7.48324 4.57706 7.70752L4.26603 7.96143L3.32658 7.72021Z" fill="#0C0B0B"/>
<path d="M95.3296 266.656V259.788H98.0083C98.9224 259.788 99.6227 259.949 100.109 260.27C100.6 260.588 100.846 261.055 100.846 261.673C100.846 261.991 100.75 262.278 100.56 262.536C100.37 262.79 100.088 262.985 99.7158 263.12C100.131 263.218 100.463 263.408 100.712 263.692C100.966 263.975 101.093 264.314 101.093 264.707C101.093 265.338 100.861 265.82 100.395 266.155C99.9338 266.489 99.2799 266.656 98.4336 266.656H95.3296ZM96.5039 263.641V265.71H98.4463C98.9372 265.71 99.3032 265.619 99.5444 265.437C99.7899 265.255 99.9126 264.999 99.9126 264.669C99.9126 263.984 99.409 263.641 98.4019 263.641H96.5039ZM96.5039 262.702H98.021C99.1213 262.702 99.6714 262.38 99.6714 261.737C99.6714 261.093 99.1509 260.761 98.1099 260.74H96.5039V262.702ZM107.676 260.74H105.372V266.656H104.197V260.74H101.938V259.788H107.676V260.74Z" fill="#0C0B0B"/>
<path d="M161.86 265.825C162.279 265.825 162.645 265.698 162.958 265.444C163.272 265.19 163.445 264.872 163.479 264.492H164.59C164.569 264.885 164.433 265.26 164.184 265.615C163.934 265.971 163.6 266.254 163.181 266.466C162.766 266.677 162.326 266.783 161.86 266.783C160.925 266.783 160.18 266.472 159.626 265.85C159.076 265.224 158.801 264.369 158.801 263.286V263.089C158.801 262.42 158.924 261.826 159.169 261.305C159.414 260.785 159.766 260.38 160.223 260.093C160.684 259.805 161.228 259.661 161.854 259.661C162.624 259.661 163.263 259.892 163.771 260.353C164.283 260.814 164.556 261.413 164.59 262.149H163.479C163.445 261.705 163.276 261.341 162.971 261.057C162.671 260.77 162.298 260.626 161.854 260.626C161.257 260.626 160.794 260.842 160.464 261.273C160.138 261.701 159.975 262.321 159.975 263.133V263.355C159.975 264.147 160.138 264.756 160.464 265.183C160.79 265.611 161.255 265.825 161.86 265.825ZM171.712 263.298C171.712 264.343 171.473 265.186 170.995 265.825C170.516 266.464 169.869 266.783 169.052 266.783C168.219 266.783 167.563 266.519 167.084 265.99V269.297H165.91V259.788H166.983L167.04 260.55C167.518 259.957 168.183 259.661 169.033 259.661C169.858 259.661 170.51 259.972 170.988 260.594C171.471 261.216 171.712 262.082 171.712 263.19V263.298ZM170.538 263.165C170.538 262.391 170.373 261.779 170.042 261.33C169.712 260.882 169.26 260.658 168.684 260.658C167.973 260.658 167.44 260.973 167.084 261.603V264.885C167.436 265.511 167.973 265.825 168.697 265.825C169.26 265.825 169.706 265.602 170.036 265.158C170.37 264.71 170.538 264.045 170.538 263.165Z" fill="#0C0B0B"/>
<path d="M235.145 266.656H233.964V264.168C233.448 264.303 232.919 264.371 232.377 264.371C231.518 264.371 230.862 264.151 230.41 263.711C229.961 263.271 229.733 262.644 229.724 261.832V259.782H230.898V261.87C230.92 262.894 231.413 263.406 232.377 263.406C232.919 263.406 233.448 263.338 233.964 263.203V259.788H235.145V266.656ZM239.88 266.783C238.949 266.783 238.192 266.478 237.608 265.869C237.024 265.255 236.732 264.437 236.732 263.412V263.197C236.732 262.515 236.861 261.908 237.119 261.375C237.382 260.837 237.745 260.418 238.211 260.118C238.681 259.813 239.188 259.661 239.734 259.661C240.627 259.661 241.321 259.955 241.816 260.543C242.312 261.132 242.559 261.974 242.559 263.07V263.558H237.906C237.923 264.236 238.12 264.784 238.497 265.203C238.877 265.617 239.36 265.825 239.944 265.825C240.359 265.825 240.71 265.74 240.998 265.571C241.285 265.401 241.537 265.177 241.753 264.898L242.47 265.456C241.895 266.341 241.031 266.783 239.88 266.783ZM239.734 260.626C239.26 260.626 238.863 260.799 238.541 261.146C238.219 261.489 238.021 261.972 237.944 262.594H241.385V262.505C241.351 261.908 241.19 261.447 240.902 261.121C240.615 260.791 240.225 260.626 239.734 260.626ZM248.951 260.74H246.647V266.656H245.473V260.74H243.213V259.788H248.951V260.74Z" fill="#0C0B0B"/>
<path d="M292.506 267H291.332V261.103H288.171V267H286.99V260.132H292.506V267ZM299.641 260.132V267H298.46V264.328H296.689L295.071 267H293.801L295.528 264.15C295.088 263.989 294.749 263.742 294.512 263.407C294.279 263.069 294.163 262.675 294.163 262.227C294.163 261.6 294.398 261.097 294.868 260.716C295.337 260.331 295.966 260.136 296.753 260.132H299.641ZM295.344 262.239C295.344 262.574 295.458 262.844 295.687 263.052C295.915 263.255 296.218 263.359 296.594 263.363H298.46V261.084H296.772C296.336 261.084 295.989 261.192 295.731 261.408C295.473 261.619 295.344 261.896 295.344 262.239ZM306.63 261.084H304.326V267H303.151V261.084H300.892V260.132H306.63V261.084Z" fill="#0C0B0B"/>
<path d="M353.513 265.825C353.932 265.825 354.298 265.698 354.611 265.444C354.924 265.19 355.097 264.872 355.131 264.492H356.242C356.221 264.885 356.086 265.26 355.836 265.615C355.586 265.971 355.252 266.254 354.833 266.466C354.418 266.677 353.978 266.783 353.513 266.783C352.577 266.783 351.833 266.472 351.278 265.85C350.728 265.224 350.453 264.369 350.453 263.286V263.089C350.453 262.42 350.576 261.826 350.821 261.305C351.067 260.785 351.418 260.38 351.875 260.093C352.336 259.805 352.88 259.661 353.506 259.661C354.277 259.661 354.916 259.892 355.423 260.353C355.935 260.814 356.208 261.413 356.242 262.149H355.131C355.097 261.705 354.928 261.341 354.624 261.057C354.323 260.77 353.951 260.626 353.506 260.626C352.91 260.626 352.446 260.842 352.116 261.273C351.79 261.701 351.627 262.321 351.627 263.133V263.355C351.627 264.147 351.79 264.756 352.116 265.183C352.442 265.611 352.908 265.825 353.513 265.825ZM359.81 264.936L361.409 259.788H362.666L359.905 267.716C359.477 268.859 358.798 269.43 357.867 269.43L357.645 269.411L357.207 269.328V268.376L357.524 268.402C357.922 268.402 358.231 268.321 358.451 268.161C358.675 268 358.86 267.706 359.003 267.278L359.264 266.58L356.813 259.788H358.096L359.81 264.936ZM366.735 260.182C367.598 260.182 368.288 260.471 368.804 261.051C369.325 261.627 369.585 262.386 369.585 263.33V263.438C369.585 264.085 369.46 264.665 369.21 265.177C368.961 265.685 368.601 266.081 368.131 266.364C367.666 266.643 367.128 266.783 366.519 266.783C365.597 266.783 364.854 266.476 364.291 265.863C363.728 265.245 363.447 264.418 363.447 263.381V262.809C363.447 261.366 363.713 260.22 364.247 259.369C364.784 258.518 365.575 258 366.621 257.814C367.213 257.708 367.613 257.579 367.82 257.427C368.028 257.274 368.131 257.065 368.131 256.798H369.096C369.096 257.327 368.976 257.74 368.734 258.036C368.497 258.332 368.117 258.542 367.592 258.664L366.716 258.861C366.018 259.026 365.493 259.306 365.142 259.699C364.795 260.088 364.568 260.609 364.462 261.261C365.084 260.541 365.842 260.182 366.735 260.182ZM366.506 261.146C365.931 261.146 365.474 261.341 365.135 261.73C364.797 262.115 364.627 262.651 364.627 263.336V263.438C364.627 264.174 364.797 264.758 365.135 265.19C365.478 265.617 365.939 265.831 366.519 265.831C367.103 265.831 367.564 265.615 367.903 265.183C368.241 264.752 368.411 264.121 368.411 263.292C368.411 262.644 368.239 262.126 367.896 261.737C367.558 261.343 367.095 261.146 366.506 261.146Z" fill="#0C0B0B"/>
<path d="M414.75 266.656V259.788H417.428C418.342 259.788 419.043 259.949 419.529 260.27C420.02 260.588 420.266 261.055 420.266 261.673C420.266 261.991 420.17 262.278 419.98 262.536C419.79 262.79 419.508 262.985 419.136 263.12C419.55 263.218 419.883 263.408 420.132 263.692C420.386 263.975 420.513 264.314 420.513 264.707C420.513 265.338 420.28 265.82 419.815 266.155C419.354 266.489 418.7 266.656 417.854 266.656H414.75ZM415.924 263.641V265.71H417.866C418.357 265.71 418.723 265.619 418.964 265.437C419.21 265.255 419.333 264.999 419.333 264.669C419.333 263.984 418.829 263.641 417.822 263.641H415.924ZM415.924 262.702H417.441C418.541 262.702 419.091 262.38 419.091 261.737C419.091 261.093 418.571 260.761 417.53 260.74H415.924V262.702ZM421.757 263.159C421.757 262.486 421.889 261.881 422.151 261.343C422.417 260.806 422.786 260.391 423.255 260.099C423.729 259.807 424.269 259.661 424.874 259.661C425.809 259.661 426.565 259.985 427.14 260.632C427.72 261.28 428.01 262.141 428.01 263.216V263.298C428.01 263.967 427.881 264.568 427.623 265.101C427.369 265.63 427.003 266.043 426.524 266.339C426.05 266.635 425.505 266.783 424.887 266.783C423.956 266.783 423.2 266.459 422.621 265.812C422.045 265.164 421.757 264.307 421.757 263.241V263.159ZM422.938 263.298C422.938 264.06 423.114 264.671 423.465 265.133C423.82 265.594 424.294 265.825 424.887 265.825C425.483 265.825 425.957 265.592 426.309 265.126C426.66 264.657 426.835 264.001 426.835 263.159C426.835 262.405 426.656 261.796 426.296 261.33C425.94 260.861 425.466 260.626 424.874 260.626C424.294 260.626 423.827 260.856 423.471 261.318C423.116 261.779 422.938 262.439 422.938 263.298ZM432.237 265.825C432.656 265.825 433.022 265.698 433.335 265.444C433.649 265.19 433.822 264.872 433.856 264.492H434.967C434.946 264.885 434.81 265.26 434.561 265.615C434.311 265.971 433.977 266.254 433.558 266.466C433.143 266.677 432.703 266.783 432.237 266.783C431.302 266.783 430.557 266.472 430.003 265.85C429.453 265.224 429.178 264.369 429.178 263.286V263.089C429.178 262.42 429.3 261.826 429.546 261.305C429.791 260.785 430.143 260.38 430.6 260.093C431.061 259.805 431.605 259.661 432.231 259.661C433.001 259.661 433.64 259.892 434.148 260.353C434.66 260.814 434.933 261.413 434.967 262.149H433.856C433.822 261.705 433.653 261.341 433.348 261.057C433.048 260.77 432.675 260.626 432.231 260.626C431.634 260.626 431.171 260.842 430.841 261.273C430.515 261.701 430.352 262.321 430.352 263.133V263.355C430.352 264.147 430.515 264.756 430.841 265.183C431.167 265.611 431.632 265.825 432.237 265.825Z" fill="#0C0B0B"/>
<path d="M35.5088 233.707H426.509" stroke="#D5D5EA"/>
<path d="M35.54 188.707H426.54" stroke="#D5D5EA"/>
<path d="M35.5088 143.707H426.509" stroke="#D5D5EA"/>
<path d="M35.5093 98.7068H426.509" stroke="#D5D5EA"/>
<path d="M35.5093 53.7068H426.509" stroke="#D5D5EA"/>
<path d="M35.5093 8.70654H426.509" stroke="#D5D5EA"/>
<g filter="url(#filter0_d)">
<path d="M111.152 165.906C111.152 168.959 108.676 171.435 105.623 171.435C102.569 171.435 100.094 168.959 100.094 165.906C100.094 162.852 102.569 160.377 105.623 160.377C108.676 160.377 111.152 162.852 111.152 165.906Z" fill="#0C0B0B"/>
</g>
<g opacity="0.3" filter="url(#filter1_f)">
<path fill-rule="evenodd" clip-rule="evenodd" d="M94.4072 138.391H129.743C131.952 138.391 133.743 140.182 133.743 142.391V152.249C133.743 154.458 131.952 156.249 129.743 156.249H116.566L115.918 156.773C115.771 156.891 115.562 156.891 115.415 156.773L114.767 156.249H94.4072C92.1981 156.249 90.4072 154.458 90.4072 152.249V142.391C90.4072 140.182 92.1981 138.391 94.4072 138.391Z" fill="#0C0B0B"/>
</g>
<path fill-rule="evenodd" clip-rule="evenodd" d="M84.3027 128.987H126.303C128.512 128.987 130.303 130.778 130.303 132.987V146.987C130.303 149.196 128.512 150.987 126.303 150.987H112.303L105.563 156.764C105.413 156.893 105.192 156.893 105.042 156.764L98.3027 150.987H84.3027C82.0936 150.987 80.3027 149.196 80.3027 146.987V132.987C80.3027 130.778 82.0936 128.987 84.3027 128.987Z" fill="white"/>
<path d="M94.0827 144.762C94.8201 144.613 95.4314 144.538 95.9167 144.538V135.942L94.0547 136.74V136.124L97.2187 134.85V144.538C97.8814 144.566 98.4927 144.636 99.0527 144.748V145H94.0827V144.762ZM101.842 146.554C102.262 146.069 102.495 145.56 102.542 145.028C102.495 145.047 102.43 145.056 102.346 145.056C102.159 145.056 101.996 144.991 101.856 144.86C101.725 144.72 101.66 144.552 101.66 144.356C101.66 144.123 101.73 143.931 101.87 143.782C102.019 143.623 102.215 143.544 102.458 143.544C102.766 143.544 102.994 143.642 103.144 143.838C103.302 144.034 103.382 144.277 103.382 144.566C103.382 144.949 103.274 145.364 103.06 145.812C102.854 146.26 102.602 146.624 102.304 146.904L101.842 146.554ZM108.203 145.14C107.596 145.14 107.036 145.051 106.523 144.874C106.019 144.687 105.594 144.435 105.249 144.118L105.515 143.712C105.804 143.973 106.177 144.193 106.635 144.37C107.101 144.538 107.549 144.622 107.979 144.622C108.716 144.622 109.299 144.375 109.729 143.88C110.158 143.385 110.373 142.755 110.373 141.99C110.373 141.243 110.2 140.627 109.855 140.142C109.519 139.647 108.977 139.4 108.231 139.4C107.783 139.4 107.377 139.489 107.013 139.666C106.649 139.843 106.299 140.109 105.963 140.464L105.529 140.324L106.117 135.2H111.199L111.115 136.026H106.593L106.187 139.652C106.812 139.129 107.596 138.868 108.539 138.868C109.631 138.868 110.429 139.167 110.933 139.764C111.437 140.352 111.689 141.089 111.689 141.976C111.689 142.564 111.553 143.101 111.283 143.586C111.012 144.062 110.615 144.44 110.093 144.72C109.57 145 108.94 145.14 108.203 145.14ZM115.121 140.226C115.121 141.085 115.602 141.514 116.563 141.514C117.03 141.514 117.455 141.444 117.837 141.304C118.22 141.155 118.612 140.959 119.013 140.716V137.496H120.245V145H119.013V141.654C118.593 141.925 118.178 142.139 117.767 142.298C117.366 142.447 116.881 142.522 116.311 142.522C115.546 142.522 114.949 142.321 114.519 141.92C114.099 141.519 113.889 140.982 113.889 140.31V137.496H115.121V140.226Z" fill="#0C0B0B"/>
<g filter="url(#filter2_d)">
<path d="M178.52 122.458C178.52 125.512 176.044 127.987 172.991 127.987C169.937 127.987 167.462 125.512 167.462 122.458C167.462 119.405 169.937 116.929 172.991 116.929C176.044 116.929 178.52 119.405 178.52 122.458Z" fill="#0C0B0B"/>
</g>
<g opacity="0.3" filter="url(#filter3_f)">
<path fill-rule="evenodd" clip-rule="evenodd" d="M161.775 94.9437H197.111C199.321 94.9437 201.111 96.7346 201.111 98.9437V108.802C201.111 111.011 199.321 112.802 197.111 112.802H183.934L183.286 113.325C183.139 113.444 182.93 113.444 182.783 113.325L182.135 112.802H161.775C159.566 112.802 157.775 111.011 157.775 108.802V98.9437C157.775 96.7346 159.566 94.9437 161.775 94.9437Z" fill="#0C0B0B"/>
</g>
<path fill-rule="evenodd" clip-rule="evenodd" d="M151.671 85.54H193.671C195.88 85.54 197.671 87.3309 197.671 89.54V103.54C197.671 105.749 195.88 107.54 193.671 107.54H179.671L172.931 113.317C172.781 113.445 172.56 113.445 172.411 113.317L165.671 107.54H151.671C149.462 107.54 147.671 105.749 147.671 103.54V89.54C147.671 87.3309 149.462 85.54 151.671 85.54Z" fill="white"/>
<path d="M158.69 100.924C158.821 100.429 159.026 99.9814 159.306 99.58C159.586 99.1694 159.889 98.81 160.216 98.502C160.552 98.194 160.977 97.8394 161.49 97.438C162.041 96.9994 162.465 96.6354 162.764 96.346C163.072 96.0567 163.329 95.7207 163.534 95.338C163.749 94.9554 163.856 94.5307 163.856 94.064C163.856 93.5134 163.679 93.0514 163.324 92.678C162.969 92.3047 162.465 92.118 161.812 92.118C161.373 92.118 160.935 92.2067 160.496 92.384C160.057 92.552 159.689 92.776 159.39 93.056L159.124 92.636C159.46 92.3467 159.875 92.104 160.37 91.908C160.874 91.7027 161.425 91.6 162.022 91.6C162.965 91.6 163.725 91.8007 164.304 92.202C164.883 92.6034 165.172 93.2287 165.172 94.078C165.172 94.61 165.046 95.0907 164.794 95.52C164.551 95.9494 164.248 96.3227 163.884 96.64C163.52 96.948 163.035 97.3214 162.428 97.76C161.905 98.1334 161.485 98.446 161.168 98.698C160.86 98.95 160.575 99.244 160.314 99.58C160.062 99.916 159.885 100.28 159.782 100.672H164.696C164.715 100.513 164.766 100.299 164.85 100.028C164.934 99.7574 165.013 99.552 165.088 99.412H165.424L165.27 101.54H158.69V100.924ZM167.513 103.094C167.933 102.609 168.166 102.1 168.213 101.568C168.166 101.587 168.101 101.596 168.017 101.596C167.83 101.596 167.667 101.531 167.527 101.4C167.396 101.26 167.331 101.092 167.331 100.896C167.331 100.663 167.401 100.471 167.541 100.322C167.69 100.163 167.886 100.084 168.129 100.084C168.437 100.084 168.665 100.182 168.815 100.378C168.973 100.574 169.053 100.817 169.053 101.106C169.053 101.489 168.945 101.904 168.731 102.352C168.525 102.8 168.273 103.164 167.975 103.444L167.513 103.094ZM173.874 101.68C173.267 101.68 172.707 101.591 172.194 101.414C171.69 101.227 171.265 100.975 170.92 100.658L171.186 100.252C171.475 100.513 171.848 100.733 172.306 100.91C172.772 101.078 173.22 101.162 173.65 101.162C174.387 101.162 174.97 100.915 175.4 100.42C175.829 99.9254 176.044 99.2954 176.044 98.53C176.044 97.7834 175.871 97.1674 175.526 96.682C175.19 96.1874 174.648 95.94 173.902 95.94C173.454 95.94 173.048 96.0287 172.684 96.206C172.32 96.3834 171.97 96.6494 171.634 97.004L171.2 96.864L171.788 91.74H176.87L176.786 92.566H172.264L171.858 96.192C172.483 95.6694 173.267 95.408 174.21 95.408C175.302 95.408 176.1 95.7067 176.604 96.304C177.108 96.892 177.36 97.6294 177.36 98.516C177.36 99.104 177.224 99.6407 176.954 100.126C176.683 100.602 176.286 100.98 175.764 101.26C175.241 101.54 174.611 101.68 173.874 101.68ZM180.792 96.766C180.792 97.6247 181.273 98.054 182.234 98.054C182.701 98.054 183.126 97.984 183.508 97.844C183.891 97.6947 184.283 97.4987 184.684 97.256V94.036H185.916V101.54H184.684V98.194C184.264 98.4647 183.849 98.6794 183.438 98.838C183.037 98.9874 182.552 99.062 181.982 99.062C181.217 99.062 180.62 98.8614 180.19 98.46C179.77 98.0587 179.56 97.522 179.56 96.85V94.036H180.792V96.766Z" fill="#0C0B0B"/>
<g filter="url(#filter4_d)">
<path d="M306.288 52.7504C306.288 55.8039 303.813 58.2793 300.759 58.2793C297.706 58.2793 295.23 55.8039 295.23 52.7504C295.23 49.6968 297.706 47.2214 300.759 47.2214C303.813 47.2214 306.288 49.6968 306.288 52.7504Z" fill="#0C0B0B"/>
</g>
<g opacity="0.3" filter="url(#filter5_f)">
<path fill-rule="evenodd" clip-rule="evenodd" d="M289.544 25.2358H324.88C327.089 25.2358 328.88 27.0267 328.88 29.2358V39.094C328.88 41.3031 327.089 43.094 324.88 43.094H311.702L311.054 43.6175C310.908 43.736 310.698 43.736 310.552 43.6175L309.903 43.094H289.544C287.335 43.094 285.544 41.3031 285.544 39.094V29.2358C285.544 27.0267 287.335 25.2358 289.544 25.2358Z" fill="#0C0B0B"/>
</g>
<path fill-rule="evenodd" clip-rule="evenodd" d="M279.439 15.832H321.439C323.649 15.832 325.439 17.6229 325.439 19.832V33.832C325.439 36.0412 323.649 37.832 321.439 37.832H307.439L300.7 43.6089C300.55 43.7373 300.329 43.7373 300.179 43.6089L293.439 37.832H279.439C277.23 37.832 275.439 36.0412 275.439 33.832V19.832C275.439 17.6229 277.23 15.832 279.439 15.832Z" fill="white"/>
<path d="M295.436 31.608C295.996 31.4587 296.481 31.384 296.892 31.384V29.466H292.314V28.738L296.878 22.032H298.194V28.654H299.72L299.552 29.466H298.194V31.37C298.67 31.3794 299.141 31.4587 299.608 31.608V31.832H295.436V31.608ZM296.892 28.654V22.984H296.864L293.07 28.654H296.892ZM302.523 27.058C302.523 27.9167 303.004 28.346 303.965 28.346C304.432 28.346 304.856 28.276 305.239 28.136C305.622 27.9867 306.014 27.7907 306.415 27.548V24.328H307.647V31.832H306.415V28.486C305.995 28.7567 305.58 28.9714 305.169 29.13C304.768 29.2794 304.282 29.354 303.713 29.354C302.948 29.354 302.35 29.1534 301.921 28.752C301.501 28.3507 301.291 27.814 301.291 27.142V24.328H302.523V27.058Z" fill="#0C0B0B"/>
<path d="M34.7776 233.175C34.3963 233.575 34.411 234.208 34.8105 234.589C35.21 234.971 35.843 234.956 36.2244 234.556L34.7776 233.175ZM240.712 190.505C247.127 190.505 252.292 188.256 256.451 184.328C260.585 180.425 263.691 174.901 266.106 168.384C270.929 155.368 273.104 138.067 274.984 120.917C276.872 103.694 278.462 86.6292 282.067 73.8502C283.869 67.4639 286.148 62.2533 289.142 58.654C292.105 55.0929 295.76 53.1108 300.437 53.1108V51.1108C295.086 51.1108 290.893 53.4224 287.605 57.3749C284.348 61.2894 281.975 66.8127 280.142 73.3071C276.479 86.2894 274.873 103.573 272.996 120.699C271.111 137.897 268.953 154.945 264.23 167.69C261.872 174.054 258.903 179.263 255.078 182.874C251.28 186.46 246.603 188.505 240.712 188.505V190.505ZM300.437 53.1108C309.763 53.1108 315.549 55.89 319.665 59.973C323.84 64.1141 326.372 69.6563 329.049 75.4191C331.696 81.1149 334.483 87.0165 339.198 91.4602C343.964 95.952 350.614 98.8846 360.84 98.8846V96.8846C351.044 96.8846 344.911 94.0956 340.57 90.0047C336.178 85.8659 333.534 80.324 330.863 74.5764C328.224 68.8958 325.551 62.9945 321.074 58.553C316.538 54.0534 310.223 51.1108 300.437 51.1108V53.1108ZM360.84 98.8846C380.365 98.8846 390.485 109.915 398.774 121.217C402.888 126.827 406.626 132.625 410.787 136.953C414.99 141.325 419.772 144.367 426.075 144.367V142.367C420.52 142.367 416.224 139.723 412.229 135.567C408.191 131.367 404.611 125.794 400.386 120.034C391.997 108.595 381.357 96.8846 360.84 96.8846V98.8846ZM173.247 122.797C180.844 122.797 186.857 126.795 192.142 133.023C197.444 139.272 201.898 147.631 206.391 156.119C210.857 164.554 215.362 173.121 220.73 179.565C226.113 186.028 232.487 190.505 240.712 190.505V188.505C233.322 188.505 227.458 184.518 222.267 178.285C217.06 172.034 212.654 163.674 208.159 155.183C203.692 146.744 199.137 138.176 193.667 131.729C188.18 125.262 181.659 120.797 173.247 120.797V122.797ZM36.2244 234.556C39.9147 230.69 44.0499 224.508 48.6484 217.521C53.2705 210.499 58.3973 202.604 64.1179 195.183C75.6094 180.276 89.2369 167.64 105.532 167.64V165.64C88.1943 165.64 74.0353 179.042 62.5339 193.962C56.7581 201.454 51.5869 209.419 46.9778 216.422C42.3452 223.46 38.3161 229.468 34.7776 233.175L36.2244 234.556ZM105.532 167.64C116.684 167.64 124.65 164.784 130.796 160.45C136.917 156.134 141.164 150.397 144.945 144.776C148.76 139.103 152.053 133.633 156.339 129.525C160.562 125.478 165.72 122.797 173.247 122.797V120.797C165.145 120.797 159.506 123.72 154.955 128.081C150.467 132.382 147.009 138.122 143.285 143.66C139.526 149.25 135.447 154.723 129.644 158.816C123.865 162.89 116.31 165.64 105.532 165.64V167.64Z" fill="#0C0B0B"/>
<g filter="url(#filter6_d)">
<path d="M41.1677 231.947C41.1677 235.001 38.6923 237.476 35.6388 237.476C32.5852 237.476 30.1099 235.001 30.1099 231.947C30.1099 228.893 32.5852 226.418 35.6388 226.418C38.6923 226.418 41.1677 228.893 41.1677 231.947Z" fill="#0C0B0B"/>
</g>
<g opacity="0.3" filter="url(#filter7_f)">
<path fill-rule="evenodd" clip-rule="evenodd" d="M24.4229 204.432H59.7589C61.968 204.432 63.7589 206.223 63.7589 208.432V218.291C63.7589 220.5 61.968 222.291 59.7589 222.291H46.5813L45.9332 222.814C45.7866 222.932 45.5772 222.932 45.4305 222.814L44.7824 222.291H24.4229C22.2137 222.291 20.4229 220.5 20.4229 218.291V208.432C20.4229 206.223 22.2137 204.432 24.4229 204.432Z" fill="#0C0B0B"/>
</g>
<path fill-rule="evenodd" clip-rule="evenodd" d="M14.3188 195.029H56.3188C58.528 195.029 60.3188 196.82 60.3188 199.029V213.029C60.3188 215.238 58.528 217.029 56.3188 217.029H42.3188L35.5792 222.806C35.4294 222.934 35.2083 222.934 35.0585 222.806L28.3188 217.029H14.3188C12.1097 217.029 10.3188 215.238 10.3188 213.029V199.029C10.3188 196.82 12.1097 195.029 14.3188 195.029Z" fill="white"/>
<path d="M30.8195 211.169C29.5875 211.169 28.6961 210.73 28.1455 209.853C27.5948 208.975 27.3195 207.734 27.3195 206.129C27.3195 204.523 27.5948 203.282 28.1455 202.405C28.6961 201.527 29.5875 201.089 30.8195 201.089C32.0515 201.089 32.9428 201.527 33.4935 202.405C34.0535 203.273 34.3335 204.514 34.3335 206.129C34.3335 207.743 34.0535 208.989 33.4935 209.867C32.9428 210.735 32.0515 211.169 30.8195 211.169ZM30.8195 210.651C31.6035 210.651 32.1635 210.259 32.4995 209.475C32.8448 208.691 33.0175 207.575 33.0175 206.129C33.0175 204.691 32.8448 203.581 32.4995 202.797C32.1635 202.003 31.6035 201.607 30.8195 201.607C30.0448 201.607 29.4848 202.003 29.1395 202.797C28.8035 203.581 28.6355 204.691 28.6355 206.129C28.6355 207.575 28.8035 208.691 29.1395 209.475C29.4848 210.259 30.0448 210.651 30.8195 210.651ZM37.4023 206.255C37.4023 207.113 37.8829 207.543 38.8443 207.543C39.3109 207.543 39.7356 207.473 40.1183 207.333C40.5009 207.183 40.8929 206.987 41.2943 206.745V203.525H42.5263V211.029H41.2943V207.683C40.8743 207.953 40.4589 208.168 40.0483 208.327C39.6469 208.476 39.1616 208.551 38.5923 208.551C37.8269 208.551 37.2296 208.35 36.8003 207.949C36.3803 207.547 36.1703 207.011 36.1703 206.339V203.525H37.4023V206.255Z" fill="#0C0B0B"/>
<g filter="url(#filter8_d)">
<path d="M245.889 189.184C245.889 192.238 243.414 194.713 240.36 194.713C237.306 194.713 234.831 192.238 234.831 189.184C234.831 186.131 237.306 183.655 240.36 183.655C243.414 183.655 245.889 186.131 245.889 189.184Z" fill="#0C0B0B"/>
</g>
<g opacity="0.3" filter="url(#filter9_f)">
<path fill-rule="evenodd" clip-rule="evenodd" d="M229.145 161.67H264.481C266.69 161.67 268.481 163.46 268.481 165.67V175.528C268.481 177.737 266.69 179.528 264.481 179.528H251.303L250.655 180.051C250.508 180.17 250.299 180.17 250.152 180.051L249.504 179.528H229.145C226.935 179.528 225.145 177.737 225.145 175.528V165.67C225.145 163.46 226.935 161.67 229.145 161.67Z" fill="#0C0B0B"/>
</g>
<path fill-rule="evenodd" clip-rule="evenodd" d="M219.04 152.266H261.04C263.249 152.266 265.04 154.057 265.04 156.266V170.266C265.04 172.475 263.249 174.266 261.04 174.266H247.04L240.3 180.043C240.151 180.171 239.93 180.171 239.78 180.043L233.04 174.266H219.04C216.831 174.266 215.04 172.475 215.04 170.266V156.266C215.04 154.057 216.831 152.266 219.04 152.266Z" fill="white"/>
<path d="M233.161 168.028C233.898 167.879 234.509 167.804 234.995 167.804V159.208L233.133 160.006V159.39L236.297 158.116V167.804C236.959 167.832 237.571 167.902 238.131 168.014V168.266H233.161V168.028ZM242.123 163.492C242.123 164.351 242.604 164.78 243.565 164.78C244.032 164.78 244.457 164.71 244.839 164.57C245.222 164.421 245.614 164.225 246.015 163.982V160.762H247.247V168.266H246.015V164.92C245.595 165.191 245.18 165.405 244.769 165.564C244.368 165.713 243.883 165.788 243.313 165.788C242.548 165.788 241.951 165.587 241.521 165.186C241.101 164.785 240.891 164.248 240.891 163.576V160.762H242.123V163.492Z" fill="#0C0B0B"/>
<g filter="url(#filter10_d)">
<path d="M366.688 97.766C366.688 100.82 364.212 103.295 361.159 103.295C358.105 103.295 355.63 100.82 355.63 97.766C355.63 94.7124 358.105 92.2371 361.159 92.2371C364.212 92.2371 366.688 94.7124 366.688 97.766Z" fill="#0C0B0B"/>
</g>
<g opacity="0.3" filter="url(#filter11_f)">
<path fill-rule="evenodd" clip-rule="evenodd" d="M349.943 70.2515H385.279C387.489 70.2515 389.279 72.0423 389.279 74.2515V84.1096C389.279 86.3188 387.489 88.1096 385.279 88.1096H372.102L371.454 88.6331C371.307 88.7516 371.098 88.7516 370.951 88.6331L370.303 88.1096H349.943C347.734 88.1096 345.943 86.3188 345.943 84.1096V74.2515C345.943 72.0423 347.734 70.2515 349.943 70.2515Z" fill="#0C0B0B"/>
</g>
<path fill-rule="evenodd" clip-rule="evenodd" d="M339.839 60.8477H381.839C384.048 60.8477 385.839 62.6385 385.839 64.8477V78.8477C385.839 81.0568 384.048 82.8477 381.839 82.8477H367.839L361.099 88.6245C360.949 88.7529 360.728 88.7529 360.579 88.6245L353.839 82.8477H339.839C337.63 82.8477 335.839 81.0568 335.839 78.8477V64.8477C335.839 62.6385 337.63 60.8477 339.839 60.8477Z" fill="white"/>
<path d="M356.102 76.9877C355.486 76.9877 354.907 76.8943 354.366 76.7077C353.834 76.521 353.4 76.2737 353.064 75.9657L353.33 75.5597C353.61 75.8117 353.988 76.0263 354.464 76.2037C354.949 76.381 355.411 76.4697 355.85 76.4697C356.55 76.4697 357.11 76.255 357.53 75.8257C357.959 75.3963 358.174 74.8083 358.174 74.0617C358.174 73.6697 358.085 73.3103 357.908 72.9837C357.74 72.6477 357.492 72.3863 357.166 72.1997C356.839 72.0037 356.456 71.9057 356.018 71.9057H354.884V71.3737H356.018C356.447 71.3737 356.811 71.271 357.11 71.0657C357.418 70.851 357.646 70.585 357.796 70.2677C357.945 69.9503 358.02 69.6237 358.02 69.2877C358.02 68.737 357.842 68.289 357.488 67.9437C357.142 67.5983 356.643 67.4257 355.99 67.4257C355.551 67.4257 355.112 67.5097 354.674 67.6777C354.235 67.8457 353.866 68.0697 353.568 68.3497L353.302 67.9437C353.647 67.645 354.062 67.3977 354.548 67.2017C355.042 67.0057 355.593 66.9077 356.2 66.9077C357.142 66.9077 357.903 67.1037 358.482 67.4957C359.07 67.8783 359.364 68.471 359.364 69.2737C359.364 69.8243 359.182 70.3237 358.818 70.7717C358.454 71.2197 357.987 71.4903 357.418 71.5837V71.6537C357.978 71.7563 358.458 72.013 358.86 72.4237C359.261 72.8343 359.462 73.371 359.462 74.0337C359.462 75.0417 359.135 75.7883 358.482 76.2737C357.838 76.7497 357.044 76.9877 356.102 76.9877ZM362.922 72.0737C362.922 72.9323 363.403 73.3617 364.364 73.3617C364.831 73.3617 365.256 73.2917 365.638 73.1517C366.021 73.0023 366.413 72.8063 366.814 72.5637V69.3437H368.046V76.8477H366.814V73.5017C366.394 73.7723 365.979 73.987 365.568 74.1457C365.167 74.295 364.682 74.3697 364.112 74.3697C363.347 74.3697 362.75 74.169 362.32 73.7677C361.9 73.3663 361.69 72.8297 361.69 72.1577V69.3437H362.922V72.0737Z" fill="#0C0B0B"/>
<g filter="url(#filter12_d)">
<path d="M432.314 143.983C432.314 147.037 429.838 149.512 426.785 149.512C423.731 149.512 421.256 147.037 421.256 143.983C421.256 140.93 423.731 138.454 426.785 138.454C429.838 138.454 432.314 140.93 432.314 143.983Z" fill="#0C0B0B"/>
</g>
<g opacity="0.3" filter="url(#filter13_f)">
<path fill-rule="evenodd" clip-rule="evenodd" d="M415.569 116.469H450.905C453.115 116.469 454.905 118.26 454.905 120.469V130.327C454.905 132.536 453.115 134.327 450.905 134.327H437.728L437.08 134.85C436.933 134.969 436.724 134.969 436.577 134.85L435.929 134.327H415.569C413.36 134.327 411.569 132.536 411.569 130.327V120.469C411.569 118.26 413.36 116.469 415.569 116.469Z" fill="#0C0B0B"/>
</g>
<path fill-rule="evenodd" clip-rule="evenodd" d="M405.465 107.065H447.465C449.674 107.065 451.465 108.856 451.465 111.065V125.065C451.465 127.274 449.674 129.065 447.465 129.065H433.465L426.725 134.842C426.575 134.97 426.354 134.97 426.205 134.842L419.465 129.065H405.465C403.256 129.065 401.465 127.274 401.465 125.065V111.065C401.465 108.856 403.256 107.065 405.465 107.065Z" fill="white"/>
<path d="M418.521 122.449C418.652 121.954 418.857 121.506 419.137 121.105C419.417 120.694 419.721 120.335 420.047 120.027C420.383 119.719 420.808 119.364 421.321 118.963C421.872 118.524 422.297 118.16 422.595 117.871C422.903 117.582 423.16 117.246 423.365 116.863C423.58 116.48 423.687 116.056 423.687 115.589C423.687 115.038 423.51 114.576 423.155 114.203C422.801 113.83 422.297 113.643 421.643 113.643C421.205 113.643 420.766 113.732 420.327 113.909C419.889 114.077 419.52 114.301 419.221 114.581L418.955 114.161C419.291 113.872 419.707 113.629 420.201 113.433C420.705 113.228 421.256 113.125 421.853 113.125C422.796 113.125 423.557 113.326 424.135 113.727C424.714 114.128 425.003 114.754 425.003 115.603C425.003 116.135 424.877 116.616 424.625 117.045C424.383 117.474 424.079 117.848 423.715 118.165C423.351 118.473 422.866 118.846 422.259 119.285C421.737 119.658 421.317 119.971 420.999 120.223C420.691 120.475 420.407 120.769 420.145 121.105C419.893 121.441 419.716 121.805 419.613 122.197H424.527C424.546 122.038 424.597 121.824 424.681 121.553C424.765 121.282 424.845 121.077 424.919 120.937H425.255L425.101 123.065H418.521V122.449ZM428.548 118.291C428.548 119.15 429.029 119.579 429.99 119.579C430.457 119.579 430.882 119.509 431.264 119.369C431.647 119.22 432.039 119.024 432.44 118.781V115.561H433.672V123.065H432.44V119.719C432.02 119.99 431.605 120.204 431.194 120.363C430.793 120.512 430.308 120.587 429.738 120.587C428.973 120.587 428.376 120.386 427.946 119.985C427.526 119.584 427.316 119.047 427.316 118.375V115.561H428.548V118.291Z" fill="#0C0B0B"/>
<defs>
<filter id="filter0_d" x="98.0938" y="159.377" width="15.0578" height="15.0578" filterUnits="userSpaceOnUse" color-interpolation-filters="sRGB">
<feFlood flood-opacity="0" result="BackgroundImageFix"/>
<feColorMatrix in="SourceAlpha" type="matrix" values="0 0 0 0 0 0 0 0 0 0 0 0 0 0 0 0 0 0 127 0"/>
<feOffset dy="1"/>
<feGaussianBlur stdDeviation="1"/>
<feColorMatrix type="matrix" values="0 0 0 0 0.215686 0 0 0 0 0.317647 0 0 0 0 1 0 0 0 0.2 0"/>
<feBlend mode="normal" in2="BackgroundImageFix" result="effect1_dropShadow"/>
<feBlend mode="normal" in="SourceGraphic" in2="effect1_dropShadow" result="shape"/>
</filter>
<filter id="filter1_f" x="70.4072" y="118.391" width="83.3361" height="58.4705" filterUnits="userSpaceOnUse" color-interpolation-filters="sRGB">
<feFlood flood-opacity="0" result="BackgroundImageFix"/>
<feBlend mode="normal" in="SourceGraphic" in2="BackgroundImageFix" result="shape"/>
<feGaussianBlur stdDeviation="10" result="effect1_foregroundBlur"/>
</filter>
<filter id="filter2_d" x="165.462" y="115.929" width="15.0578" height="15.0578" filterUnits="userSpaceOnUse" color-interpolation-filters="sRGB">
<feFlood flood-opacity="0" result="BackgroundImageFix"/>
<feColorMatrix in="SourceAlpha" type="matrix" values="0 0 0 0 0 0 0 0 0 0 0 0 0 0 0 0 0 0 127 0"/>
<feOffset dy="1"/>
<feGaussianBlur stdDeviation="1"/>
<feColorMatrix type="matrix" values="0 0 0 0 0.215686 0 0 0 0 0.317647 0 0 0 0 1 0 0 0 0.2 0"/>
<feBlend mode="normal" in2="BackgroundImageFix" result="effect1_dropShadow"/>
<feBlend mode="normal" in="SourceGraphic" in2="effect1_dropShadow" result="shape"/>
</filter>
<filter id="filter3_f" x="137.775" y="74.9437" width="83.3361" height="58.4705" filterUnits="userSpaceOnUse" color-interpolation-filters="sRGB">
<feFlood flood-opacity="0" result="BackgroundImageFix"/>
<feBlend mode="normal" in="SourceGraphic" in2="BackgroundImageFix" result="shape"/>
<feGaussianBlur stdDeviation="10" result="effect1_foregroundBlur"/>
</filter>
<filter id="filter4_d" x="293.23" y="46.2214" width="15.0578" height="15.0578" filterUnits="userSpaceOnUse" color-interpolation-filters="sRGB">
<feFlood flood-opacity="0" result="BackgroundImageFix"/>
<feColorMatrix in="SourceAlpha" type="matrix" values="0 0 0 0 0 0 0 0 0 0 0 0 0 0 0 0 0 0 127 0"/>
<feOffset dy="1"/>
<feGaussianBlur stdDeviation="1"/>
<feColorMatrix type="matrix" values="0 0 0 0 0.215686 0 0 0 0 0.317647 0 0 0 0 1 0 0 0 0.2 0"/>
<feBlend mode="normal" in2="BackgroundImageFix" result="effect1_dropShadow"/>
<feBlend mode="normal" in="SourceGraphic" in2="effect1_dropShadow" result="shape"/>
</filter>
<filter id="filter5_f" x="265.544" y="5.23584" width="83.3361" height="58.4705" filterUnits="userSpaceOnUse" color-interpolation-filters="sRGB">
<feFlood flood-opacity="0" result="BackgroundImageFix"/>
<feBlend mode="normal" in="SourceGraphic" in2="BackgroundImageFix" result="shape"/>
<feGaussianBlur stdDeviation="10" result="effect1_foregroundBlur"/>
</filter>
<filter id="filter6_d" x="28.1099" y="225.418" width="15.0578" height="15.0578" filterUnits="userSpaceOnUse" color-interpolation-filters="sRGB">
<feFlood flood-opacity="0" result="BackgroundImageFix"/>
<feColorMatrix in="SourceAlpha" type="matrix" values="0 0 0 0 0 0 0 0 0 0 0 0 0 0 0 0 0 0 127 0"/>
<feOffset dy="1"/>
<feGaussianBlur stdDeviation="1"/>
<feColorMatrix type="matrix" values="0 0 0 0 0.215686 0 0 0 0 0.317647 0 0 0 0 1 0 0 0 0.2 0"/>
<feBlend mode="normal" in2="BackgroundImageFix" result="effect1_dropShadow"/>
<feBlend mode="normal" in="SourceGraphic" in2="effect1_dropShadow" result="shape"/>
</filter>
<filter id="filter7_f" x="0.422852" y="184.432" width="83.3361" height="58.4705" filterUnits="userSpaceOnUse" color-interpolation-filters="sRGB">
<feFlood flood-opacity="0" result="BackgroundImageFix"/>
<feBlend mode="normal" in="SourceGraphic" in2="BackgroundImageFix" result="shape"/>
<feGaussianBlur stdDeviation="10" result="effect1_foregroundBlur"/>
</filter>
<filter id="filter8_d" x="232.831" y="182.655" width="15.0578" height="15.0578" filterUnits="userSpaceOnUse" color-interpolation-filters="sRGB">
<feFlood flood-opacity="0" result="BackgroundImageFix"/>
<feColorMatrix in="SourceAlpha" type="matrix" values="0 0 0 0 0 0 0 0 0 0 0 0 0 0 0 0 0 0 127 0"/>
<feOffset dy="1"/>
<feGaussianBlur stdDeviation="1"/>
<feColorMatrix type="matrix" values="0 0 0 0 0.215686 0 0 0 0 0.317647 0 0 0 0 1 0 0 0 0.2 0"/>
<feBlend mode="normal" in2="BackgroundImageFix" result="effect1_dropShadow"/>
<feBlend mode="normal" in="SourceGraphic" in2="effect1_dropShadow" result="shape"/>
</filter>
<filter id="filter9_f" x="205.145" y="141.67" width="83.3361" height="58.4705" filterUnits="userSpaceOnUse" color-interpolation-filters="sRGB">
<feFlood flood-opacity="0" result="BackgroundImageFix"/>
<feBlend mode="normal" in="SourceGraphic" in2="BackgroundImageFix" result="shape"/>
<feGaussianBlur stdDeviation="10" result="effect1_foregroundBlur"/>
</filter>
<filter id="filter10_d" x="353.63" y="91.2371" width="15.0578" height="15.0578" filterUnits="userSpaceOnUse" color-interpolation-filters="sRGB">
<feFlood flood-opacity="0" result="BackgroundImageFix"/>
<feColorMatrix in="SourceAlpha" type="matrix" values="0 0 0 0 0 0 0 0 0 0 0 0 0 0 0 0 0 0 127 0"/>
<feOffset dy="1"/>
<feGaussianBlur stdDeviation="1"/>
<feColorMatrix type="matrix" values="0 0 0 0 0.215686 0 0 0 0 0.317647 0 0 0 0 1 0 0 0 0.2 0"/>
<feBlend mode="normal" in2="BackgroundImageFix" result="effect1_dropShadow"/>
<feBlend mode="normal" in="SourceGraphic" in2="effect1_dropShadow" result="shape"/>
</filter>
<filter id="filter11_f" x="325.943" y="50.2515" width="83.3361" height="58.4705" filterUnits="userSpaceOnUse" color-interpolation-filters="sRGB">
<feFlood flood-opacity="0" result="BackgroundImageFix"/>
<feBlend mode="normal" in="SourceGraphic" in2="BackgroundImageFix" result="shape"/>
<feGaussianBlur stdDeviation="10" result="effect1_foregroundBlur"/>
</filter>
<filter id="filter12_d" x="419.256" y="137.454" width="15.0578" height="15.0578" filterUnits="userSpaceOnUse" color-interpolation-filters="sRGB">
<feFlood flood-opacity="0" result="BackgroundImageFix"/>
<feColorMatrix in="SourceAlpha" type="matrix" values="0 0 0 0 0 0 0 0 0 0 0 0 0 0 0 0 0 0 127 0"/>
<feOffset dy="1"/>
<feGaussianBlur stdDeviation="1"/>
<feColorMatrix type="matrix" values="0 0 0 0 0.215686 0 0 0 0 0.317647 0 0 0 0 1 0 0 0 0.2 0"/>
<feBlend mode="normal" in2="BackgroundImageFix" result="effect1_dropShadow"/>
<feBlend mode="normal" in="SourceGraphic" in2="effect1_dropShadow" result="shape"/>
</filter>
<filter id="filter13_f" x="391.569" y="96.4688" width="83.3361" height="58.4705" filterUnits="userSpaceOnUse" color-interpolation-filters="sRGB">
<feFlood flood-opacity="0" result="BackgroundImageFix"/>
<feBlend mode="normal" in="SourceGraphic" in2="BackgroundImageFix" result="shape"/>
<feGaussianBlur stdDeviation="10" result="effect1_foregroundBlur"/>
</filter>
</defs>
</svg>
