<svg width="30" height="30" viewBox="0 0 30 30" fill="none" xmlns="http://www.w3.org/2000/svg">
<rect width="30" height="30" rx="5" fill="white"/>
<rect x="1.36353" y="1.36353" width="27.2727" height="27.2727" rx="4" fill="black"/>
<path d="M14.463 24.7055C14.463 25.1684 14.0879 25.5435 13.625 25.5435H8.80657C6.95824 25.5435 5.45459 24.0399 5.45459 22.1915V7.4428C5.45459 5.59447 6.95824 4.09082 8.80657 4.09082H19.1093C20.9575 4.09082 22.4613 5.59447 22.4613 7.4428V16.3256C22.4613 16.7884 22.086 17.1636 21.6233 17.1636C21.1605 17.1636 20.7853 16.7884 20.7853 16.3256V7.4428C20.7853 6.51872 20.0334 5.76681 19.1093 5.76681H8.80657C7.88249 5.76681 7.13058 6.51872 7.13058 7.4428V22.1915C7.13058 23.1156 7.88249 23.8675 8.80657 23.8675H13.625C14.0879 23.8675 14.463 24.2427 14.463 24.7055ZM24.3363 17.7392C23.9601 17.4698 23.4366 17.5565 23.1672 17.9326L19.0367 23.7024C18.9239 23.8331 18.7825 23.8613 18.7069 23.8664C18.6286 23.8714 18.4774 23.8616 18.3476 23.7381L15.6736 21.1704C15.3398 20.8499 14.8094 20.8606 14.4887 21.1944C14.1681 21.5283 14.1789 22.0588 14.5128 22.3793L17.1895 24.9495C17.5905 25.3311 18.1255 25.5435 18.6761 25.5435C18.7234 25.5435 18.7709 25.5419 18.8183 25.5388C19.418 25.4988 19.9779 25.2072 20.3545 24.7384C20.3642 24.7265 20.3737 24.714 20.3827 24.7014L24.53 18.9083C24.7994 18.532 24.7128 18.0086 24.3363 17.7392ZM18.2713 9.11879H9.63999C9.17712 9.11879 8.80199 9.49393 8.80199 9.95679C8.80199 10.4197 9.17712 10.7948 9.63999 10.7948H18.2713C18.734 10.7948 19.1093 10.4197 19.1093 9.95679C19.1093 9.49393 18.734 9.11879 18.2713 9.11879ZM19.1093 13.3088C19.1093 12.8459 18.734 12.4708 18.2713 12.4708H9.63999C9.17712 12.4708 8.80199 12.8459 8.80199 13.3088C8.80199 13.7716 9.17712 14.1468 9.63999 14.1468H18.2713C18.734 14.1468 19.1093 13.7716 19.1093 13.3088ZM9.63999 15.8228C9.17712 15.8228 8.80199 16.1979 8.80199 16.6608C8.80199 17.1236 9.17712 17.4988 9.63999 17.4988H14.882C15.3449 17.4988 15.72 17.1236 15.72 16.6608C15.72 16.1979 15.3449 15.8228 14.882 15.8228H9.63999Z" fill="#D0D0D0"/>
</svg>
