<svg width="27" height="27" viewBox="0 0 27 27" fill="none" xmlns="http://www.w3.org/2000/svg">
<path d="M18.4067 20.5154V22.5549C18.4067 24.8042 16.5769 26.634 14.3277 26.634H4.07905C1.8298 26.634 0 24.8042 0 22.5549V4.60712C0 2.35787 1.8298 0.528076 4.07905 0.528076H14.3277C16.5769 0.528076 18.4067 2.35787 18.4067 4.60712V6.64665C18.4067 7.20991 17.9502 7.66641 17.3869 7.66641C16.8237 7.66641 16.3672 7.20991 16.3672 6.64665V4.60712C16.3672 3.4826 15.4522 2.5676 14.3277 2.5676H4.07905C2.95452 2.5676 2.03952 3.4826 2.03952 4.60712V22.5549C2.03952 23.6795 2.95452 24.5945 4.07905 24.5945H14.3277C15.4522 24.5945 16.3672 23.6795 16.3672 22.5549V20.5154C16.3672 19.9522 16.8237 19.4956 17.3869 19.4956C17.9502 19.4956 18.4067 19.9522 18.4067 20.5154ZM25.3592 11.8293L23.0757 9.5458C22.6774 9.14746 22.0316 9.14746 21.6335 9.5458C21.2351 9.94394 21.2351 10.5897 21.6335 10.9878L23.2577 12.6123H11.0134C10.4502 12.6123 9.99367 13.0688 9.99367 13.632C9.99367 14.1953 10.4502 14.6518 11.0134 14.6518H23.2577L21.6335 16.2762C21.2351 16.6744 21.2351 17.3201 21.6335 17.7182C21.8327 17.9174 22.0936 18.017 22.3545 18.017C22.6156 18.017 22.8765 17.9174 23.0757 17.7182L25.3592 15.4347C26.3533 14.4407 26.3533 12.8234 25.3592 11.8293Z" fill="white"/>
</svg>
