<svg width="23" height="27" viewBox="0 0 23 27" fill="none" xmlns="http://www.w3.org/2000/svg">
<path d="M11.4443 0C7.65804 0 4.57764 3.0804 4.57764 6.8667C4.57764 10.653 7.65804 13.7334 11.4443 13.7334C15.2306 13.7334 18.311 10.653 18.311 6.8667C18.311 3.0804 15.2306 0 11.4443 0ZM11.4443 12.2075C8.49944 12.2075 6.10357 9.81159 6.10357 6.8667C6.10357 3.9218 8.49944 1.52593 11.4443 1.52593C14.3892 1.52593 16.7851 3.9218 16.7851 6.8667C16.7851 9.81159 14.3892 12.2075 11.4443 12.2075Z" fill="white"/>
<path d="M19.988 18.2193C18.108 16.3105 15.6158 15.2593 12.9704 15.2593H9.91856C7.2732 15.2593 4.78095 16.3105 2.901 18.2193C1.03026 20.1188 0 22.6261 0 25.2796C0 25.7009 0.341605 26.0425 0.762966 26.0425H22.126C22.5474 26.0425 22.889 25.7009 22.889 25.2796C22.889 22.6261 21.8587 20.1188 19.988 18.2193ZM1.5595 24.5166C1.94175 20.1888 5.54478 16.7852 9.91856 16.7852H12.9704C17.3442 16.7852 20.9472 20.1888 21.3295 24.5166H1.5595Z" fill="white"/>
</svg>
